<svg xmlns="http://www.w3.org/2000/svg" version="1.1" xmlns:xlink="http://www.w3.org/1999/xlink" xmlns:svgjs="http://svgjs.com/svgjs" width="512" height="512" x="0" y="0" viewBox="0 0 463 464" style="enable-background:new 0 0 512 512" xml:space="preserve" class=""><g><path xmlns="http://www.w3.org/2000/svg" d="m378.914062 96c-8.835937 0-16-7.164062-16-16v-80h-240c-17.671874 0-32 14.328125-32 32v400c0 17.671875 14.328126 32 32 32h304c17.675782 0 32-14.328125 32-32v-336zm0 0" fill="#e0e0e2" data-original="#e0e0e2"></path><path xmlns="http://www.w3.org/2000/svg" d="m362.914062 80c0 8.835938 7.164063 16 16 16h80l-96-96zm0 0" fill="#c6c5ca" data-original="#c6c5ca"></path><path xmlns="http://www.w3.org/2000/svg" d="m288.597656 229.679688c.085938 27.128906-7.574218 53.71875-22.082031 76.640624-11.488281 18.3125-26.964844 33.792969-45.28125 45.28125-39.0625 24.515626-87.496094 28.886719-130.320313 11.757813-67.28125-26.992187-104.019531-99.777344-85.777343-169.9375 18.238281-70.160156 85.78125-115.835937 157.6875-106.636719 71.910156 9.199219 125.777343 70.402344 125.773437 142.894532zm0 0" fill="#ffcd00" data-original="#ffcd00"></path><path xmlns="http://www.w3.org/2000/svg" d="m223.796875 150.480469c-40.761719-40.8125-105.847656-43.992188-150.394531-7.351563-44.542969 36.636719-53.980469 101.117188-21.800782 148.984375 32.179688 47.867188 95.449219 63.46875 146.195313 36.046875 19.238281-10.28125 35-26.039062 45.277344-45.28125 23.539062-43.542968 15.699219-97.375-19.277344-132.398437zm0 0" fill="#acabb1" data-original="#acabb1"></path><path xmlns="http://www.w3.org/2000/svg" d="m221.234375 351.601562 75.121094 75.039063c12.644531 11.453125 32.050781 10.976563 44.113281-1.085937 12.066406-12.066407 12.542969-31.472657 1.085938-44.113282l-75.039063-75.121094c-11.488281 18.3125-26.964844 33.792969-45.28125 45.28125zm0 0" fill="#00aeef" data-original="#00aeef"></path><g xmlns="http://www.w3.org/2000/svg" fill="#acabb1"><path d="m314.914062 56h-176c-4.417968 0-8-3.582031-8-8s3.582032-8 8-8h176c4.421876 0 8 3.582031 8 8s-3.578124 8-8 8zm0 0" fill="#acabb1" data-original="#acabb1"></path><path d="m410.914062 200h-96c-4.417968 0-8-3.582031-8-8s3.582032-8 8-8h96c4.421876 0 8 3.582031 8 8s-3.578124 8-8 8zm0 0" fill="#acabb1" data-original="#acabb1"></path><path d="m410.914062 248h-96c-4.417968 0-8-3.582031-8-8s3.582032-8 8-8h96c4.421876 0 8 3.582031 8 8s-3.578124 8-8 8zm0 0" fill="#acabb1" data-original="#acabb1"></path><path d="m410.914062 296h-104c-4.417968 0-8-3.582031-8-8s3.582032-8 8-8h104c4.421876 0 8 3.582031 8 8s-3.578124 8-8 8zm0 0" fill="#acabb1" data-original="#acabb1"></path><path d="m410.914062 344h-72c-4.417968 0-8-3.582031-8-8s3.582032-8 8-8h72c4.421876 0 8 3.582031 8 8s-3.578124 8-8 8zm0 0" fill="#acabb1" data-original="#acabb1"></path><path d="m314.914062 104h-64c-4.417968 0-8-3.582031-8-8s3.582032-8 8-8h64c4.421876 0 8 3.582031 8 8s-3.578124 8-8 8zm0 0" fill="#acabb1" data-original="#acabb1"></path><path d="m410.914062 152h-120c-4.417968 0-8-3.582031-8-8s3.582032-8 8-8h120c4.421876 0 8 3.582031 8 8s-3.578124 8-8 8zm0 0" fill="#acabb1" data-original="#acabb1"></path></g><path xmlns="http://www.w3.org/2000/svg" d="m170.914062 192h-56c-4.417968 0-8-3.582031-8-8s3.582032-8 8-8h56c4.421876 0 8 3.582031 8 8s-3.578124 8-8 8zm0 0" fill="#f1f2f2" data-original="#f1f2f2"></path><path xmlns="http://www.w3.org/2000/svg" d="m202.914062 240h-120c-4.417968 0-8-3.582031-8-8s3.582032-8 8-8h120c4.421876 0 8 3.582031 8 8s-3.578124 8-8 8zm0 0" fill="#f1f2f2" data-original="#f1f2f2"></path><path xmlns="http://www.w3.org/2000/svg" d="m170.914062 288h-56c-4.417968 0-8-3.582031-8-8s3.582032-8 8-8h56c4.421876 0 8 3.582031 8 8s-3.578124 8-8 8zm0 0" fill="#f1f2f2" data-original="#f1f2f2"></path><path xmlns="http://www.w3.org/2000/svg" d="m410.914062 440h-32c-4.417968 0-8-3.582031-8-8s3.582032-8 8-8h32c4.421876 0 8-3.582031 8-8v-32c0-4.417969 3.582032-8 8-8 4.421876 0 8 3.582031 8 8v32c0 13.253906-10.742187 24-24 24zm0 0" fill="#f1f2f2" data-original="#f1f2f2"></path></g></svg>