<svg xmlns="http://www.w3.org/2000/svg" version="1.1" xmlns:xlink="http://www.w3.org/1999/xlink" xmlns:svgjs="http://svgjs.com/svgjs" width="512" height="512" x="0" y="0" viewBox="0 0 512.001 512.001" style="enable-background:new 0 0 512 512" xml:space="preserve" class=""><g>
    <path xmlns="http://www.w3.org/2000/svg" style="" d="M408.418,39.065l-362.955,70.38c-4.357,0.845-7.205,5.062-6.361,9.421l74.971,386.625  c0.845,4.357,5.062,7.205,9.421,6.361l261.038-50.618l88.515-131.099l-55.208-284.71C416.993,41.069,412.776,38.22,408.418,39.065z" fill="#f6a7c5" data-original="#f6a7c5" class=""></path>
    <g xmlns="http://www.w3.org/2000/svg">
        <path style="" d="M384.532,461.233l88.515-131.099L371.13,349.897c-4.357,0.845-7.205,5.062-6.361,9.421   L384.532,461.233z" fill="#f082a6" data-original="#f082a6"></path>
        <polygon style="" points="104.515,97.996 145.397,176.82 233.807,160.746 240.167,71.691  " fill="#f082a6" data-original="#f082a6"></polygon>
    </g>
    <path xmlns="http://www.w3.org/2000/svg" style="" d="M245.637,0.951c-2.613-1.398-5.784-1.246-8.25,0.399l-19.654,13.103L198.078,1.35  c-2.7-1.8-6.217-1.8-8.916,0l-19.654,13.103L149.854,1.35c-5.246-3.497-12.495,0.4-12.495,6.687v160.746  c0,4.439,3.599,8.037,8.037,8.037h96.447c4.439,0,8.037-3.599,8.037-8.037V8.037C249.881,5.074,248.25,2.35,245.637,0.951z" fill="#fcde76" data-original="#fcde76"></path>
    <g xmlns="http://www.w3.org/2000/svg">
    </g>
    <g xmlns="http://www.w3.org/2000/svg">
    </g>
    <g xmlns="http://www.w3.org/2000/svg">
    </g>
    <g xmlns="http://www.w3.org/2000/svg">
    </g>
    <g xmlns="http://www.w3.org/2000/svg">
    </g>
    <g xmlns="http://www.w3.org/2000/svg">
    </g>
    <g xmlns="http://www.w3.org/2000/svg">
    </g>
    <g xmlns="http://www.w3.org/2000/svg">
    </g>
    <g xmlns="http://www.w3.org/2000/svg">
    </g>
    <g xmlns="http://www.w3.org/2000/svg">
    </g>
    <g xmlns="http://www.w3.org/2000/svg">
    </g>
    <g xmlns="http://www.w3.org/2000/svg">
    </g>
    <g xmlns="http://www.w3.org/2000/svg">
    </g>
    <g xmlns="http://www.w3.org/2000/svg">
    </g>
    <g xmlns="http://www.w3.org/2000/svg">
    </g>
    </g></svg>