<svg xmlns="http://www.w3.org/2000/svg" version="1.1" xmlns:xlink="http://www.w3.org/1999/xlink" xmlns:svgjs="http://svgjs.com/svgjs" width="512" height="512" x="0" y="0" viewBox="0 0 510 510" style="enable-background:new 0 0 512 512" xml:space="preserve" class=""><g><linearGradient xmlns="http://www.w3.org/2000/svg" id="lg1"><stop offset="0" stop-color="#99e6fc"></stop><stop offset=".4296" stop-color="#01d0fb"></stop><stop offset=".5256" stop-color="#08c6f7"></stop><stop offset=".692" stop-color="#1da9eb"></stop><stop offset=".9074" stop-color="#3f7cd9"></stop><stop offset="1" stop-color="#4f66d0"></stop></linearGradient><linearGradient xmlns="http://www.w3.org/2000/svg" id="SVGID_1_" gradientUnits="userSpaceOnUse" x1="35.303" x2="474.697" xmlns:xlink="http://www.w3.org/1999/xlink" xlink:href="#lg1" y1="255" y2="255"></linearGradient><linearGradient xmlns="http://www.w3.org/2000/svg" id="SVGID_2_" gradientUnits="userSpaceOnUse" x1="-144" x2="466.21" xmlns:xlink="http://www.w3.org/1999/xlink" xlink:href="#lg1" y1="255" y2="255"></linearGradient><linearGradient xmlns="http://www.w3.org/2000/svg" id="SVGID_3_" gradientUnits="userSpaceOnUse" x1="0" x2="589.97" y1="367.822" y2="367.822"><stop offset="0" stop-color="#f8f6f7"></stop><stop offset=".1788" stop-color="#f8f6f7"></stop><stop offset="1" stop-color="#e7e6f5"></stop></linearGradient><linearGradient xmlns="http://www.w3.org/2000/svg" id="SVGID_4_" gradientUnits="userSpaceOnUse" x1="226.001" x2="445.01" y1="367.822" y2="367.822"><stop offset="0" stop-color="#f8f6f7"></stop><stop offset="1" stop-color="#d1ceeb"></stop></linearGradient><g xmlns="http://www.w3.org/2000/svg"><circle cx="255" cy="255" fill="url(#SVGID_1_)" r="219.697" data-original="url(#SVGID_1_)"></circle><path d="m474.697 255c0-.001 0-.003 0-.004-.002-121.308-98.321-219.65-219.62-219.692-.026 0-.052-.001-.078-.001-.013 0-.026.001-.039.001-6.804.001-13.531.328-20.177.934.968.088 1.93.198 2.895.299-63.337 9.013-115.854 66.88-136.417 145.115-40.696 18.638-65.958 44.612-65.958 73.348s25.262 54.71 65.959 73.349c20.563 78.235 73.08 136.102 136.417 145.115-.965.101-1.927.211-2.895.299 6.659.608 13.399.935 20.216.935 121.334 0 219.695-98.359 219.697-219.693 0-.002 0-.004 0-.005zm-379.784-41.885c-1.374 9.588-2.288 19.396-2.704 29.385h-28.64c5.077-10.014 15.919-20.2 31.344-29.385zm-31.344 54.385h28.64c.416 9.989 1.331 19.797 2.704 29.385-15.425-9.185-26.267-19.371-31.344-29.385zm370.332-25h-16.11c-.416-9.989-1.331-19.797-2.704-29.385 6.6 3.93 12.352 8.043 17.182 12.248.761 5.647 1.308 11.362 1.632 17.137zm-16.11 25h16.11c-.324 5.775-.871 11.49-1.633 17.138-4.829 4.204-10.582 8.318-17.182 12.248 1.375-9.589 2.289-19.397 2.705-29.386zm6.563-77.899c-4.911-2.775-10.117-5.432-15.616-7.95-8.007-30.463-20.86-57.836-37.308-80.443 24.081 24.555 42.441 54.735 52.924 88.393zm-141.189-11.406c2.116 20.399 3.387 42.105 3.735 64.305h-63.799c.348-22.201 1.618-43.906 3.735-64.305 9.267-.584 18.663-.885 28.165-.885 9.501 0 18.897.301 28.164.885zm-1.363-114.154c25.444 7.167 49.108 24.485 68.423 50.509 12.029 16.207 21.744 34.933 28.948 55.731-21.987-7.055-46.854-12.288-73.614-15.234-5.317-38.671-13.623-70.475-23.757-91.006zm5.097 203.459c-.348 22.201-1.618 43.906-3.735 64.305-9.267.584-18.663.885-28.165.885s-18.898-.301-28.165-.885c-2.116-20.399-3.387-42.105-3.735-64.305zm18.661 87.453c26.759-2.946 51.626-8.18 73.614-15.234-7.204 20.798-16.919 39.524-28.948 55.731-10.744 14.476-22.834 26.259-35.828 35.098-10.743 7.308-24.734-2.821-21.111-15.299 4.97-17.115 9.14-37.514 12.273-60.296zm30.107-29.858c-8.854 1.75-17.911 3.194-27.132 4.342 1.881-19.485 3.042-40.287 3.367-61.937h80.864c-.658 14.591-2.467 28.895-5.419 42.791-15.433 6.094-32.75 11.062-51.68 14.804zm-23.764-82.595c-.325-21.651-1.486-42.452-3.367-61.937 9.22 1.148 18.277 2.592 27.132 4.342 18.929 3.742 36.246 8.711 51.681 14.804 2.952 13.897 4.761 28.2 5.419 42.791zm-76.009-121.915c3.817-17.111 8.42-31.867 13.312-42.672 2.227-4.919 4.204-8.362 5.794-10.736 1.589 2.374 3.566 5.816 5.794 10.736 4.893 10.805 9.496 25.561 13.312 42.672 2.25 10.088 4.224 20.947 5.91 32.392-8.212-.435-16.556-.667-25.016-.667-8.461 0-16.805.232-25.016.667 1.686-11.446 3.66-22.305 5.91-32.392zm-76.12-6.035c19.315-26.024 42.979-43.342 68.423-50.509-10.133 20.53-18.44 52.335-23.758 91.006-26.76 2.946-51.626 8.18-73.614 15.235 7.205-20.799 16.92-39.524 28.949-55.732zm-37.122 85.159c15.435-6.093 32.752-11.062 51.681-14.804 8.854-1.75 17.911-3.194 27.132-4.342-1.881 19.485-3.042 40.287-3.367 61.937h-80.864c.657-14.591 2.465-28.895 5.418-42.791zm-5.419 67.791h80.864c.325 21.651 1.486 42.452 3.367 61.937-9.22-1.148-18.277-2.592-27.132-4.342-18.929-3.742-36.246-8.711-51.681-14.804-2.951-13.896-4.76-28.2-5.418-42.791zm42.541 127.95c-12.029-16.207-21.744-34.933-28.948-55.731 21.987 7.055 46.854 12.288 73.614 15.235 3.133 22.782 7.303 43.181 12.273 60.296 3.623 12.478-10.368 22.608-21.111 15.299-12.993-8.84-25.083-20.623-35.828-35.099zm70.21-38.426c8.212.435 16.556.667 25.016.667 8.461 0 16.804-.231 25.016-.667-1.686 11.445-3.66 22.304-5.91 32.392-3.817 17.111-8.42 31.867-13.312 42.672-.022.049-.045.098-.067.147-2.229 4.904-9.225 4.904-11.454 0-.022-.049-.044-.098-.067-.147-4.892-10.805-9.496-25.561-13.312-42.672-2.25-10.088-4.224-20.947-5.91-32.392zm141.445 51.768c16.448-22.607 29.302-49.98 37.309-80.443 5.499-2.518 10.705-5.175 15.616-7.95-10.483 33.658-28.843 63.838-52.925 88.393z" fill="url(#SVGID_2_)" data-original="url(#SVGID_2_)"></path><g><path d="m489.751 439.643h-469.502c-11.183 0-20.249-9.066-20.249-20.249v-103.145c0-11.183 9.066-20.249 20.249-20.249h469.501c11.183 0 20.249 9.066 20.249 20.249v103.145c.001 11.183-9.065 20.249-20.248 20.249z" fill="url(#SVGID_3_)" data-original="url(#SVGID_3_)"></path><path d="m489.751 296h-40.432c11.183 0 20.25 9.066 20.25 20.249v103.145c0 11.183-9.066 20.249-20.25 20.249h40.432c11.183 0 20.249-9.066 20.249-20.249v-103.145c0-11.183-9.066-20.249-20.249-20.249z" fill="url(#SVGID_4_)" data-original="url(#SVGID_4_)"></path></g><g fill="#7a6d79"><path d="m83.207 398.233c0 2.96-4.441 5.921-9.623 5.921-5.551 0-9.499-2.961-9.499-5.921v-80.56c0-3.453 3.948-5.798 9.499-5.798 5.182 0 9.623 2.345 9.623 5.798v36.395c2.221-4.813 7.648-9.377 15.298-9.377 11.226 0 20.972 11.721 20.972 25.907v27.635c0 3.947-4.811 5.921-9.622 5.921-4.441 0-9.499-1.974-9.499-5.921v-27.635c0-4.688-4.071-9.253-8.883-9.253-4.071 0-8.266 3.455-8.266 9.253z" fill="#7a6d79" data-original="#7a6d79"></path><path d="m148.84 383.306c0 3.577 1.233 4.812 5.058 4.812h5.306c5.551 0 8.142 4.07 8.142 8.019 0 4.071-2.591 8.019-8.142 8.019h-5.306c-15.667 0-24.18-6.291-24.18-20.849v-57.612c0-3.455 5.059-5.799 9.499-5.799 4.812 0 9.623 2.344 9.623 5.799v19.738h13.94c3.084 0 4.688 3.455 4.688 6.785 0 3.455-1.604 6.785-4.688 6.785h-13.94z" fill="#7a6d79" data-original="#7a6d79"></path><path d="m193.747 383.306c0 3.577 1.233 4.812 5.058 4.812h5.306c5.551 0 8.142 4.07 8.142 8.019 0 4.071-2.591 8.019-8.142 8.019h-5.306c-15.667 0-24.18-6.291-24.18-20.849v-57.612c0-3.455 5.059-5.799 9.499-5.799 4.812 0 9.623 2.344 9.623 5.799v19.738h13.94c3.084 0 4.689 3.455 4.689 6.785 0 3.455-1.604 6.785-4.689 6.785h-13.94z" fill="#7a6d79" data-original="#7a6d79"></path><path d="m237.79 351.23v2.838c2.837-4.813 8.882-9.377 16.654-9.377 12.46 0 22.083 11.721 22.083 25.907v8.636c0 13.693-9.993 26.154-21.466 26.154-7.279 0-13.694-4.812-16.038-9.869v29.484c0 2.961-4.318 5.922-9.746 5.922s-9.376-2.961-9.376-5.922v-73.773c0-3.455 4.071-5.799 9.129-5.799 5.059.001 8.76 2.344 8.76 5.799zm19.615 19.369c0-4.688-4.194-9.253-9.376-9.253-4.441 0-9.006 3.455-9.006 9.253v10.239c0 2.098 3.824 7.896 9.253 7.896 4.811 0 9.129-4.688 9.129-9.5z" fill="#7a6d79" data-original="#7a6d79"></path><path d="m313.169 387.13c0-8.513-28.868-2.714-28.868-23.439 0-9.13 5.676-18.999 23.193-18.999 10.733 0 20.973 3.701 20.973 8.883 0 2.467-2.468 9.006-6.908 9.006-3.331 0-7.155-3.701-13.817-3.701-4.935 0-7.032 2.098-7.032 3.947 0 6.909 29.115 1.852 29.115 23.563 0 11.597-8.39 18.999-23.811 18.999-12.953 0-23.439-5.305-23.439-11.35 0-2.961 2.467-8.389 6.292-8.389 3.947 0 6.785 5.551 16.654 5.551 6.538 0 7.648-2.344 7.648-4.071z" fill="#7a6d79" data-original="#7a6d79"></path><path d="m356.224 361.594c0 5.058-4.317 9.498-9.376 9.498-5.428 0-9.499-4.44-9.499-9.498 0-5.182 4.071-9.5 9.499-9.5 5.058 0 9.376 4.318 9.376 9.5zm0 33.802c0 5.058-4.317 9.499-9.376 9.499-5.428 0-9.499-4.441-9.499-9.499 0-5.181 4.071-9.499 9.499-9.499 5.058-.001 9.376 4.318 9.376 9.499z" fill="#7a6d79" data-original="#7a6d79"></path><path d="m419.142 315.453c0 .74-.124 1.604-.494 2.345l-43.425 88.948c-.864 1.85-3.208 3.084-5.552 3.084-4.194 0-6.908-3.455-6.908-6.539 0-.74.246-1.604.616-2.344l43.302-88.947c.987-2.098 2.961-3.085 5.182-3.085 3.453 0 7.279 2.591 7.279 6.538z" fill="#7a6d79" data-original="#7a6d79"></path><path d="m449.491 315.453c0 .74-.124 1.604-.494 2.345l-43.425 88.948c-.864 1.85-3.208 3.084-5.552 3.084-4.194 0-6.908-3.455-6.908-6.539 0-.74.246-1.604.616-2.344l43.302-88.947c.987-2.098 2.961-3.085 5.182-3.085 3.454 0 7.279 2.591 7.279 6.538z" fill="#7a6d79" data-original="#7a6d79"></path></g></g></g></svg>