<svg xmlns="http://www.w3.org/2000/svg" version="1.1" xmlns:xlink="http://www.w3.org/1999/xlink" xmlns:svgjs="http://svgjs.com/svgjs" width="512" height="512" x="0" y="0" viewBox="0 0 291.32 291.32" style="enable-background:new 0 0 512 512" xml:space="preserve" class=""><g>
    <g xmlns="http://www.w3.org/2000/svg">
        <g>
            <path style="" d="M145.66,0C65.547,0,0,65.547,0,145.66s65.547,145.66,145.66,145.66s145.66-65.547,145.66-145.66    S225.772,0,145.66,0z M145.66,264.008c-65.547,0-118.348-52.802-118.348-118.348S80.113,27.311,145.66,27.311    S264.008,80.113,264.008,145.66S211.206,264.008,145.66,264.008z" fill="#26a6d1" data-original="#26a6d1" class=""></path>
            <path style="" d="M221.22,70.099l-56.443,94.679l-38.236-38.236C126.542,126.542,221.22,70.099,221.22,70.099z" fill="#e2574c" data-original="#e2574c"></path>
            <path style="" d="M70.099,221.22l94.679-56.443l-38.236-38.236C126.542,126.542,70.099,221.22,70.099,221.22z" fill="#e4e7e7" data-original="#e4e7e7" class=""></path>
        </g>
    </g>
    <g xmlns="http://www.w3.org/2000/svg">
    </g>
    <g xmlns="http://www.w3.org/2000/svg">
    </g>
    <g xmlns="http://www.w3.org/2000/svg">
    </g>
    <g xmlns="http://www.w3.org/2000/svg">
    </g>
    <g xmlns="http://www.w3.org/2000/svg">
    </g>
    <g xmlns="http://www.w3.org/2000/svg">
    </g>
    <g xmlns="http://www.w3.org/2000/svg">
    </g>
    <g xmlns="http://www.w3.org/2000/svg">
    </g>
    <g xmlns="http://www.w3.org/2000/svg">
    </g>
    <g xmlns="http://www.w3.org/2000/svg">
    </g>
    <g xmlns="http://www.w3.org/2000/svg">
    </g>
    <g xmlns="http://www.w3.org/2000/svg">
    </g>
    <g xmlns="http://www.w3.org/2000/svg">
    </g>
    <g xmlns="http://www.w3.org/2000/svg">
    </g>
    <g xmlns="http://www.w3.org/2000/svg">
    </g>
    </g></svg>