<svg width="1891" height="1632" xmlns="http://www.w3.org/2000/svg" xmlns:xlink="http://www.w3.org/1999/xlink" overflow="hidden"><defs><filter id="fx0" x="-10%" y="-10%" width="120%" height="120%" filterUnits="userSpaceOnUse" primitiveUnits="userSpaceOnUse"><feComponentTransfer color-interpolation-filters="sRGB"><feFuncR type="discrete" tableValues="0 0"/><feFuncG type="discrete" tableValues="0 0"/><feFuncB type="discrete" tableValues="0 0"/><feFuncA type="linear" slope="0.101961" intercept="0"/></feComponentTransfer><feGaussianBlur stdDeviation="4.58333 4.58333"/></filter><filter id="fx1" x="-10%" y="-10%" width="120%" height="120%" filterUnits="userSpaceOnUse" primitiveUnits="userSpaceOnUse"><feComponentTransfer color-interpolation-filters="sRGB"><feFuncR type="discrete" tableValues="0 0"/><feFuncG type="discrete" tableValues="0 0"/><feFuncB type="discrete" tableValues="0 0"/><feFuncA type="linear" slope="0.309804" intercept="0"/></feComponentTransfer><feGaussianBlur stdDeviation="7.12963 7.12963"/></filter><filter id="fx2" x="-10%" y="-10%" width="120%" height="120%" filterUnits="userSpaceOnUse" primitiveUnits="userSpaceOnUse"><feComponentTransfer color-interpolation-filters="sRGB"><feFuncR type="discrete" tableValues="0 0"/><feFuncG type="discrete" tableValues="0 0"/><feFuncB type="discrete" tableValues="0 0"/><feFuncA type="linear" slope="0.2" intercept="0"/></feComponentTransfer><feGaussianBlur stdDeviation="6.1189 6.11111"/></filter><filter id="fx3" x="-10%" y="-10%" width="120%" height="120%" filterUnits="userSpaceOnUse" primitiveUnits="userSpaceOnUse"><feComponentTransfer color-interpolation-filters="sRGB"><feFuncR type="discrete" tableValues="0 0"/><feFuncG type="discrete" tableValues="0 0"/><feFuncB type="discrete" tableValues="0 0"/><feFuncA type="linear" slope="0.309804" intercept="0"/></feComponentTransfer><feGaussianBlur stdDeviation="7.12963 7.12402"/></filter><filter id="fx4" x="-10%" y="-10%" width="120%" height="120%" filterUnits="userSpaceOnUse" primitiveUnits="userSpaceOnUse"><feComponentTransfer color-interpolation-filters="sRGB"><feFuncR type="discrete" tableValues="0 0"/><feFuncG type="discrete" tableValues="0 0"/><feFuncB type="discrete" tableValues="0 0"/><feFuncA type="linear" slope="0.180392" intercept="0"/></feComponentTransfer><feGaussianBlur stdDeviation="5.5915 5.59707"/></filter><filter id="fx5" x="-10%" y="-10%" width="120%" height="120%" filterUnits="userSpaceOnUse" primitiveUnits="userSpaceOnUse"><feComponentTransfer color-interpolation-filters="sRGB"><feFuncR type="discrete" tableValues="0 0"/><feFuncG type="discrete" tableValues="0 0"/><feFuncB type="discrete" tableValues="0 0"/><feFuncA type="linear" slope="0.309804" intercept="0"/></feComponentTransfer><feGaussianBlur stdDeviation="7.12963 7.15324"/></filter><filter id="fx6" x="-10%" y="-10%" width="120%" height="120%" filterUnits="userSpaceOnUse" primitiveUnits="userSpaceOnUse"><feComponentTransfer color-interpolation-filters="sRGB"><feFuncR type="discrete" tableValues="0 0"/><feFuncG type="discrete" tableValues="0 0"/><feFuncB type="discrete" tableValues="0 0"/><feFuncA type="linear" slope="0.309804" intercept="0"/></feComponentTransfer><feGaussianBlur stdDeviation="7.12963 7.15324"/></filter><filter id="fx7" x="-10%" y="-10%" width="120%" height="120%" filterUnits="userSpaceOnUse" primitiveUnits="userSpaceOnUse"><feComponentTransfer color-interpolation-filters="sRGB"><feFuncR type="discrete" tableValues="0 0"/><feFuncG type="discrete" tableValues="0 0"/><feFuncB type="discrete" tableValues="0 0"/><feFuncA type="linear" slope="0.2" intercept="0"/></feComponentTransfer><feGaussianBlur stdDeviation="6.11111 6.13585"/></filter><clipPath id="clip8"><rect x="1277" y="458" width="1891" height="1632"/></clipPath><clipPath id="clip9"><rect x="-2" y="-2" width="1794" height="1566"/></clipPath><clipPath id="clip10"><rect x="0" y="0" width="1790" height="1561"/></clipPath><linearGradient x1="2958.12" y1="2109.02" x2="1441.88" y2="365.981" gradientUnits="userSpaceOnUse" spreadMethod="reflect" id="fill11"><stop offset="0" stop-color="#2B97D9"/><stop offset="0.22" stop-color="#63C1F0"/><stop offset="0.45" stop-color="#9DC3E6"/><stop offset="1" stop-color="#9DC3E6"/></linearGradient><clipPath id="clip12"><rect x="-7.33331" y="-7.33333" width="366.667" height="290.667"/></clipPath><clipPath id="clip13"><rect x="0" y="0" width="353" height="276"/></clipPath><linearGradient x1="1777.04" y1="642.823" x2="2445.4" y2="1533.01" gradientUnits="userSpaceOnUse" spreadMethod="reflect" id="fill14"><stop offset="0" stop-color="#37B3A2"/><stop offset="0.59" stop-color="#5BCDBD"/><stop offset="1" stop-color="#5BCDBD"/></linearGradient><clipPath id="clip15"><rect x="-3.50446" y="-3.5" width="401.01" height="387"/></clipPath><clipPath id="clip16"><rect x="0" y="0" width="393" height="378"/></clipPath><linearGradient x1="1772.34" y1="726.367" x2="2451.75" y2="1434.75" gradientUnits="userSpaceOnUse" spreadMethod="reflect" id="fill17"><stop offset="0" stop-color="#FFCA5A"/><stop offset="0.5" stop-color="#FFCA5A"/><stop offset="1" stop-color="#FEC1A2"/></linearGradient><clipPath id="clip18"><rect x="-7.33331" y="-7.66064" width="207.667" height="438.321"/></clipPath><clipPath id="clip19"><rect x="0" y="0" width="191" height="423"/></clipPath><linearGradient x1="1073.61" y1="1327.16" x2="2061.99" y2="1579.11" gradientUnits="userSpaceOnUse" spreadMethod="reflect" id="fill20"><stop offset="0" stop-color="#FFCA5A"/><stop offset="0.00719424" stop-color="#FEC95B"/><stop offset="0.0143885" stop-color="#FEC95D"/><stop offset="0.0215827" stop-color="#FEC95F"/><stop offset="0.028777" stop-color="#FEC961"/><stop offset="0.0359712" stop-color="#FEC963"/><stop offset="0.0431655" stop-color="#FEC965"/><stop offset="0.0503597" stop-color="#FEC966"/><stop offset="0.057554" stop-color="#FEC968"/><stop offset="0.0647482" stop-color="#FEC96A"/><stop offset="0.0719424" stop-color="#FEC96C"/><stop offset="0.0791367" stop-color="#FEC96E"/><stop offset="0.0863309" stop-color="#FEC96F"/><stop offset="0.0935252" stop-color="#FDC971"/><stop offset="0.100719" stop-color="#FDC973"/><stop offset="0.107914" stop-color="#FDC974"/><stop offset="0.115108" stop-color="#FDC976"/><stop offset="0.122302" stop-color="#FDC978"/><stop offset="0.129496" stop-color="#FCC97A"/><stop offset="0.136691" stop-color="#FCC97B"/><stop offset="0.143885" stop-color="#FCC97D"/><stop offset="0.151079" stop-color="#FCC97F"/><stop offset="0.158273" stop-color="#FBC980"/><stop offset="0.165468" stop-color="#FBC982"/><stop offset="0.172662" stop-color="#FBC983"/><stop offset="0.179856" stop-color="#FBC985"/><stop offset="0.18705" stop-color="#FAC987"/><stop offset="0.194245" stop-color="#FAC988"/><stop offset="0.201439" stop-color="#FAC98A"/><stop offset="0.208633" stop-color="#F9C98B"/><stop offset="0.215827" stop-color="#F9C98D"/><stop offset="0.223022" stop-color="#F9C98E"/><stop offset="0.230216" stop-color="#F8C990"/><stop offset="0.23741" stop-color="#F8C991"/><stop offset="0.244604" stop-color="#F8C993"/><stop offset="0.251799" stop-color="#F7C994"/><stop offset="0.258993" stop-color="#F7C996"/><stop offset="0.266187" stop-color="#F6C997"/><stop offset="0.273381" stop-color="#F6C999"/><stop offset="0.280576" stop-color="#F5C99A"/><stop offset="0.28777" stop-color="#F5C99B"/><stop offset="0.294964" stop-color="#F5C99D"/><stop offset="0.302158" stop-color="#F4C99E"/><stop offset="0.309353" stop-color="#F4C9A0"/><stop offset="0.316547" stop-color="#F3C9A1"/><stop offset="0.323741" stop-color="#F3C9A2"/><stop offset="0.330935" stop-color="#F2C9A4"/><stop offset="0.338129" stop-color="#F2C9A5"/><stop offset="0.345324" stop-color="#F1C9A6"/><stop offset="0.352518" stop-color="#F1C9A8"/><stop offset="0.359712" stop-color="#F0C8A9"/><stop offset="0.366906" stop-color="#F0C8AA"/><stop offset="0.374101" stop-color="#EFC8AB"/><stop offset="0.381295" stop-color="#EEC8AD"/><stop offset="0.388489" stop-color="#EEC8AE"/><stop offset="0.395683" stop-color="#EDC8AF"/><stop offset="0.402878" stop-color="#EDC8B0"/><stop offset="0.410072" stop-color="#ECC8B1"/><stop offset="0.417266" stop-color="#EBC8B3"/><stop offset="0.42446" stop-color="#EBC8B4"/><stop offset="0.431655" stop-color="#EAC8B5"/><stop offset="0.438849" stop-color="#EAC8B6"/><stop offset="0.446043" stop-color="#E9C8B7"/><stop offset="0.453237" stop-color="#E8C8B8"/><stop offset="0.460432" stop-color="#E8C8B9"/><stop offset="0.467626" stop-color="#E7C8BB"/><stop offset="0.47482" stop-color="#E6C8BC"/><stop offset="0.482014" stop-color="#E6C8BD"/><stop offset="0.489209" stop-color="#E5C8BE"/><stop offset="0.496403" stop-color="#E4C8BF"/><stop offset="0.503597" stop-color="#E3C8C0"/><stop offset="0.510791" stop-color="#E3C8C1"/><stop offset="0.517986" stop-color="#E2C7C2"/><stop offset="0.52518" stop-color="#E1C7C3"/><stop offset="0.532374" stop-color="#E0C7C4"/><stop offset="0.539568" stop-color="#E0C7C5"/><stop offset="0.546763" stop-color="#DFC7C6"/><stop offset="0.553957" stop-color="#DEC7C7"/><stop offset="0.561151" stop-color="#DDC7C8"/><stop offset="0.568345" stop-color="#DDC7C9"/><stop offset="0.57554" stop-color="#DCC7C9"/><stop offset="0.582734" stop-color="#DBC7CA"/><stop offset="0.589928" stop-color="#DAC7CB"/><stop offset="0.597122" stop-color="#D9C7CC"/><stop offset="0.604317" stop-color="#D8C7CD"/><stop offset="0.611511" stop-color="#D8C7CE"/><stop offset="0.618705" stop-color="#D7C7CF"/><stop offset="0.625899" stop-color="#D6C7CF"/><stop offset="0.633094" stop-color="#D5C7D0"/><stop offset="0.640288" stop-color="#D4C6D1"/><stop offset="0.647482" stop-color="#D3C6D2"/><stop offset="0.654676" stop-color="#D2C6D2"/><stop offset="0.66187" stop-color="#D1C6D3"/><stop offset="0.669065" stop-color="#D0C6D4"/><stop offset="0.676259" stop-color="#CFC6D5"/><stop offset="0.683453" stop-color="#CEC6D5"/><stop offset="0.690647" stop-color="#CEC6D6"/><stop offset="0.697842" stop-color="#CDC6D7"/><stop offset="0.705036" stop-color="#CCC6D7"/><stop offset="0.71223" stop-color="#CBC6D8"/><stop offset="0.719424" stop-color="#CAC6D9"/><stop offset="0.726619" stop-color="#C9C6D9"/><stop offset="0.733813" stop-color="#C8C6DA"/><stop offset="0.741007" stop-color="#C7C6DA"/><stop offset="0.748201" stop-color="#C6C5DB"/><stop offset="0.755396" stop-color="#C5C5DC"/><stop offset="0.76259" stop-color="#C4C5DC"/><stop offset="0.769784" stop-color="#C2C5DD"/><stop offset="0.776978" stop-color="#C1C5DD"/><stop offset="0.784173" stop-color="#C0C5DE"/><stop offset="0.791367" stop-color="#BFC5DE"/><stop offset="0.798561" stop-color="#BEC5DF"/><stop offset="0.805755" stop-color="#BDC5DF"/><stop offset="0.81295" stop-color="#BCC5DF"/><stop offset="0.820144" stop-color="#BBC5E0"/><stop offset="0.827338" stop-color="#BAC5E0"/><stop offset="0.834532" stop-color="#B9C5E1"/><stop offset="0.841727" stop-color="#B8C4E1"/><stop offset="0.848921" stop-color="#B6C4E1"/><stop offset="0.856115" stop-color="#B5C4E2"/><stop offset="0.863309" stop-color="#B4C4E2"/><stop offset="0.870504" stop-color="#B3C4E2"/><stop offset="0.877698" stop-color="#B2C4E3"/><stop offset="0.884892" stop-color="#B1C4E3"/><stop offset="0.892086" stop-color="#AFC4E3"/><stop offset="0.899281" stop-color="#AEC4E4"/><stop offset="0.906475" stop-color="#ADC4E4"/><stop offset="0.913669" stop-color="#ACC4E4"/><stop offset="0.920863" stop-color="#ABC4E4"/><stop offset="0.928058" stop-color="#A9C3E4"/><stop offset="0.935252" stop-color="#A8C3E5"/><stop offset="0.942446" stop-color="#A7C3E5"/><stop offset="0.94964" stop-color="#A6C3E5"/><stop offset="0.956835" stop-color="#A4C3E5"/><stop offset="0.964029" stop-color="#A3C3E5"/><stop offset="0.971223" stop-color="#A2C3E5"/><stop offset="0.978417" stop-color="#A0C3E5"/><stop offset="0.985611" stop-color="#9FC3E5"/><stop offset="0.992806" stop-color="#9EC3E5"/><stop offset="1" stop-color="#9DC3E6"/></linearGradient><clipPath id="clip21"><rect x="-6.65436" y="-6.66098" width="191.312" height="401.324"/></clipPath><clipPath id="clip22"><rect x="0" y="0" width="180" height="390"/></clipPath><linearGradient x1="2406.75" y1="959.823" x2="3340.15" y2="1112.99" gradientUnits="userSpaceOnUse" spreadMethod="reflect" id="fill23"><stop offset="0" stop-color="#F37DB3"/><stop offset="0.22" stop-color="#F9869F"/><stop offset="0.57" stop-color="#A9B4ED"/><stop offset="1" stop-color="#A9B4ED"/></linearGradient><clipPath id="clip24"><rect x="-7.33331" y="-7.3576" width="117.667" height="113.709"/></clipPath><clipPath id="clip25"><rect x="0" y="0" width="101" height="101"/></clipPath><linearGradient x1="2211.05" y1="1602.37" x2="2381.05" y2="1773.36" gradientUnits="userSpaceOnUse" spreadMethod="reflect" id="fill26"><stop offset="0" stop-color="#2A8EDA"/><stop offset="0.21" stop-color="#2CA7D8"/><stop offset="1" stop-color="#6FC6F5"/></linearGradient><clipPath id="clip27"><rect x="-7.33331" y="-7.35762" width="117.667" height="113.709"/></clipPath><clipPath id="clip28"><rect x="0" y="0" width="101" height="101"/></clipPath><linearGradient x1="2438.05" y1="520.367" x2="2608.05" y2="691.364" gradientUnits="userSpaceOnUse" spreadMethod="reflect" id="fill29"><stop offset="0" stop-color="#EF84CF"/><stop offset="0.42" stop-color="#F87490"/><stop offset="1" stop-color="#F991A7"/></linearGradient><clipPath id="clip30"><rect x="-3.5" y="-6.52631" width="132" height="135.045"/></clipPath><clipPath id="clip31"><rect x="0" y="0" width="123" height="124"/></clipPath><linearGradient x1="1456.05" y1="1453.37" x2="1627.05" y2="1623.36" gradientUnits="userSpaceOnUse" spreadMethod="reflect" id="fill32"><stop offset="0" stop-color="#FFCA5A"/><stop offset="0.5" stop-color="#FFCA5A"/><stop offset="1" stop-color="#FEC1A2"/></linearGradient></defs><g clip-path="url(#clip8)" transform="translate(-1277 -458)"><g clip-path="url(#clip9)" filter="url(#fx0)" transform="translate(1328 457)"><g clip-path="url(#clip10)"><path d="M1614.61 105.276C1547.12 45.1948 1462.06 15 1362.21 15 1097.8 15 816.126 226.98 804.416 235.915 792.397 245.158 789.623 263.029 798.56 275.353 807.498 287.677 824.447 292.608 837.082 283.98L846.328 280.899C923.06 231.602 1019.83 198.942 1112.28 212.191 1150.19 217.737 1188.4 236.223 1208.12 269.191 1227.54 301.234 1227.23 340.981 1223.53 378.262 1202.89 586.853 1094.41 777.265 944.946 921.46 851.261 1011.74 720.287 1112.18 584.691 1121.12 521.515 1125.12 475.597 1110.64 445.088 1078.29 399.17 1029.61 403.176 954.737 403.176 954.12 403.793 942.412 397.321 931.323 386.535 926.701 376.057 921.769 363.422 923.928 355.101 932.552 304.253 983.391 292.542 1084.14 291.617 1159.01 143.694 893.731 396.396 474.084 399.17 469.463 405.642 458.679 404.409 444.814 395.78 435.571 387.151 426.327 373.592 423.862 362.189 429.717 180.983 522.766 53.7068 871.547 48.468 886.644-11.0098 1058.57 9.63775 1245.59 102.09 1375.31 180.674 1485.3 304.869 1546 451.868 1546 587.773 1546 740.627 1496.39 906.113 1398.72 1422.62 1094 1538.8 637.38 1564.99 451.284 1692.88 709.481 1478.09 1077.06 1475.62 1080.75 1468.53 1092.46 1471 1107.87 1481.47 1116.49 1491.95 1125.43 1507.36 1125.43 1517.84 1116.49 1663.91 993.25 1771.77 740.292 1774.86 514.447 1777.01 342.213 1721.85 200.791 1614.61 105.276Z" fill="#FF0000" fill-rule="evenodd"/></g></g><path d="M2919.69 562.276C2852.2 502.195 2767.14 472 2667.29 472 2402.88 472 2121.21 683.98 2109.5 692.915 2097.48 702.158 2094.71 720.029 2103.64 732.353 2112.58 744.677 2129.53 749.608 2142.17 740.98L2151.41 737.899C2228.14 688.602 2324.91 655.942 2417.36 669.191 2455.27 674.737 2493.48 693.223 2513.21 726.191 2532.63 758.234 2532.31 797.981 2528.62 835.262 2507.97 1043.85 2399.49 1234.26 2250.03 1378.46 2156.34 1468.74 2025.37 1569.18 1889.77 1578.12 1826.6 1582.12 1780.68 1567.64 1750.17 1535.29 1704.25 1486.61 1708.26 1411.74 1708.26 1411.12 1708.88 1399.41 1702.4 1388.32 1691.62 1383.7 1681.14 1378.77 1668.51 1380.93 1660.18 1389.55 1609.34 1440.39 1597.62 1541.14 1596.7 1616.01 1448.78 1350.73 1701.48 931.084 1704.25 926.463 1710.72 915.679 1709.49 901.814 1700.86 892.571 1692.23 883.327 1678.68 880.862 1667.27 886.717 1486.07 979.766 1358.79 1328.55 1353.55 1343.64 1294.07 1515.57 1314.72 1702.59 1407.17 1832.31 1485.76 1942.3 1609.95 2003 1756.95 2003 1892.86 2003 2045.71 1953.39 2211.2 1855.72 2727.7 1551 2843.88 1094.38 2870.08 908.284 2997.97 1166.48 2783.17 1534.06 2780.71 1537.75 2773.61 1549.46 2776.08 1564.87 2786.56 1573.49 2797.04 1582.43 2812.44 1582.43 2822.92 1573.49 2969 1450.25 3076.86 1197.29 3079.94 971.447 3082.1 799.213 3026.93 657.791 2919.69 562.276Z" fill="url(#fill11)" fill-rule="evenodd"/><g clip-path="url(#clip12)" filter="url(#fx1)" transform="matrix(3 0 0 3 1608 700)"><g clip-path="url(#clip13)" transform="matrix(1 0 0 1 0 -2.84217e-14)"><path d="M38.558 221.332 21.8836 233.574C22.9815 235.313 24.1029 237.031 25.2556 238.73 26.4868 240.508 27.7362 242.289 29.0432 244.038L29.0955 244.117 29.1556 244.193C30.4705 245.924 31.8428 247.615 33.2307 249.294 34.5482 250.868 35.8944 252.424 37.2693 253.948L53.9463 241.711C59.9793 237.271 63.7853 230.687 64.1146 224.111L329.349 29.3027C329.927 27.0438 330.471 24.7501 330.884 22.4602 328.536 22.2026 326.168 22.0494 323.792 21.9482L58.5652 216.756C52.0852 215.187 44.5962 216.895 38.558 221.332Z" fill="#FF0000" fill-rule="evenodd"/></g></g><path d="M1697.75 1338.07 1647.72 1374.79C1651.02 1380.01 1654.38 1385.17 1657.84 1390.26 1661.53 1395.6 1665.28 1400.94 1669.2 1406.19L1669.36 1406.42 1669.54 1406.65C1673.48 1411.84 1677.6 1416.92 1681.76 1421.95 1685.72 1426.68 1689.76 1431.34 1693.88 1435.92L1743.91 1399.21C1762.01 1385.89 1773.43 1366.13 1774.42 1346.41L2570.12 761.981C2571.85 755.204 2573.48 748.323 2574.72 741.453 2567.68 740.681 2560.58 740.221 2553.45 739.917L1757.77 1324.34C1738.33 1319.63 1715.86 1324.76 1697.75 1338.07Z" fill="url(#fill14)" fill-rule="evenodd"/><g clip-path="url(#clip15)" filter="url(#fx2)" transform="matrix(1.99746 0 0 2 1729 712)"><g clip-path="url(#clip16)" transform="translate(-1.13687e-13 0)"><path d="M374.111 155.108C374.111 159.253 373.181 163.158 371.321 166.824 369.46 170.491 366.829 173.546 363.428 175.99L284.816 233.055 314.793 325.348C315.644 328.11 316.069 330.82 316.069 333.477 316.069 336.984 315.404 340.305 314.075 343.439 312.746 346.574 310.914 349.311 308.575 351.648 306.236 353.987 303.499 355.819 300.362 357.148 297.226 358.476 293.904 359.141 290.397 359.141 284.868 359.141 279.818 357.493 275.248 354.199L196.636 297.134 118.023 354.199C113.557 357.493 108.508 359.141 102.874 359.141 99.3658 359.141 96.0439 358.45 92.9077 357.068 89.7718 355.687 87.0343 353.827 84.6956 351.489 82.3568 349.151 80.4967 346.415 79.1148 343.28 77.7326 340.145 77.0416 336.771 77.0416 333.158 77.0416 330.714 77.467 328.11 78.3173 325.348L108.456 233.055 29.8422 175.99C26.4404 173.546 23.8094 170.491 21.9493 166.824 20.0888 163.158 19.1586 159.253 19.1586 155.108 19.1586 151.601 19.8498 148.28 21.2317 145.146 22.6136 142.01 24.4737 139.274 26.8129 136.936 29.1513 134.598 31.8887 132.739 35.0246 131.357 38.1608 129.977 41.4827 129.285 44.9907 129.285L142.1 129.285 172.078 36.993C173.886 31.6793 177.022 27.3762 181.487 24.0812 185.952 20.7862 191.001 19.1403 196.636 19.1403 202.269 19.1403 207.318 20.7862 211.784 24.0812 216.248 27.3762 219.385 31.6793 221.191 36.993L251.169 129.285 348.279 129.285C351.788 129.285 355.109 129.977 358.246 131.357 361.381 132.739 364.119 134.598 366.457 136.936 368.796 139.274 370.656 142.01 372.038 145.146 373.42 148.28 374.111 151.601 374.111 155.108Z" fill="#FF0000" fill-rule="evenodd"/></g></g><path d="M2466.55 1012.49C2466.55 1020.78 2464.69 1028.59 2460.97 1035.93 2457.26 1043.26 2452 1049.37 2445.21 1054.26L2288.18 1168.39 2348.06 1352.97C2349.76 1358.5 2350.61 1363.92 2350.61 1369.23 2350.61 1376.24 2349.28 1382.89 2346.63 1389.16 2343.97 1395.43 2340.31 1400.9 2335.64 1405.57 2330.97 1410.25 2325.5 1413.92 2319.24 1416.57 2312.97 1419.23 2306.34 1420.56 2299.33 1420.56 2288.29 1420.56 2278.2 1417.26 2269.07 1410.68L2112.05 1296.54 1955.02 1410.68C1946.1 1417.26 1936.02 1420.56 1924.76 1420.56 1917.76 1420.56 1911.12 1419.18 1904.86 1416.41 1898.59 1413.65 1893.12 1409.93 1888.45 1405.26 1883.78 1400.58 1880.07 1395.11 1877.31 1388.84 1874.54 1382.57 1873.16 1375.82 1873.16 1368.59 1873.16 1363.71 1874.01 1358.5 1875.71 1352.97L1935.91 1168.39 1778.89 1054.26C1772.09 1049.37 1766.84 1043.26 1763.12 1035.93 1759.4 1028.59 1757.55 1020.78 1757.55 1012.49 1757.55 1005.48 1758.93 998.837 1761.69 992.569 1764.45 986.298 1768.16 980.825 1772.83 976.149 1777.51 971.474 1782.97 967.756 1789.24 964.991 1795.5 962.232 1802.14 960.848 1809.14 960.848L2003.12 960.848 2062.99 776.263C2066.61 765.636 2072.87 757.03 2081.79 750.44 2090.71 743.85 2100.79 740.558 2112.05 740.558 2123.3 740.558 2133.39 743.85 2142.31 750.44 2151.22 757.03 2157.49 765.636 2161.1 776.263L2220.98 960.848 2414.95 960.848C2421.96 960.848 2428.59 962.232 2434.86 964.991 2441.12 967.756 2446.59 971.474 2451.26 976.149 2455.93 980.825 2459.65 986.298 2462.41 992.569 2465.17 998.837 2466.55 1005.48 2466.55 1012.49Z" fill="url(#fill17)" fill-rule="evenodd"/><g clip-path="url(#clip18)" filter="url(#fx3)" transform="matrix(3 0 0 3.00236 1276 821)"><g clip-path="url(#clip19)"><path d="M74.1766 374.624C61.9528 365.696 26.3213 319.476 22.5516 279.997 18.7819 240.518 30.1568 181.086 51.5587 137.747 89.5142 47.5427 141.215 19.5055 148.756 22.1705 172.782 30.9463 151.447 46.4864 144.26 61.6592 131.785 85.8154 117.263 103.589 108.807 160.767 100.352 217.944 105.012 232.174 109.059 256.617 121.382 287.677 125.611 293.871 150.33 325.209 174.222 356.398 171.207 373.947 163.573 385.858 155.939 397.77 117.4 405.684 107.284 398.332 97.168 390.981 85.3963 387.489 74.1766 374.624Z" fill="#FF0000" fill-rule="evenodd"/></g></g><path d="M1472.6 1919.83C1435.93 1893.03 1329.04 1754.26 1317.73 1635.73 1306.42 1517.19 1340.54 1338.76 1404.75 1208.64 1518.62 937.813 1673.72 853.635 1696.34 861.637 1768.42 887.985 1704.41 934.642 1682.85 980.196 1645.43 1052.72 1601.86 1106.09 1576.5 1277.75 1551.13 1449.42 1565.11 1492.14 1577.25 1565.53 1614.22 1658.78 1626.91 1677.38 1701.06 1771.47 1772.74 1865.11 1763.69 1917.8 1740.79 1953.56 1717.89 1989.32 1602.27 2013.08 1571.93 1991.01 1541.58 1968.94 1506.26 1958.46 1472.6 1919.83Z" fill="url(#fill20)" fill-rule="evenodd"/><g clip-path="url(#clip21)" filter="url(#fx4)" transform="matrix(3.00556 0 0 3.00256 2628 500)"><g clip-path="url(#clip22)"><path d="M105.124 38.7665C117.165 46.1537 153.793 86.4971 160.29 122.979 166.787 159.461 160.718 215.672 144.107 257.657 115.659 344.542 69.7211 374.573 62.5085 372.663 44.9953 366.855 56.0848 349.714 63.6946 335.546 71.3044 321.378 88.8044 297.162 92.3307 243.271 95.8569 189.38 87.2562 173.769 81.6413 151.311 67.8304 123.319 63.4296 117.872 38.0743 90.5604 13.4988 63.3254 14.9711 46.7535 21.1652 35.0815 27.3592 23.4093 54.6147 12.6198 72.5485 19.1967 90.4822 25.7736 91.0407 27.6357 105.124 38.7665Z" fill="#FF0000" fill-rule="evenodd"/></g></g><path d="M2924.51 596.953C2960.7 619.134 3070.79 740.268 3090.32 849.807 3109.84 959.345 3091.6 1128.12 3041.68 1254.19 2956.17 1515.06 2818.11 1605.23 2796.43 1599.5 2743.79 1582.06 2777.12 1530.59 2799.99 1488.05 2822.86 1445.51 2875.46 1372.8 2886.06 1210.99 2896.66 1049.18 2870.81 1002.31 2853.93 934.876 2812.42 850.829 2799.2 834.472 2722.99 752.468 2649.13 670.693 2653.55 620.935 2672.17 585.889 2690.78 550.843 2772.7 518.447 2826.6 538.194 2880.5 557.941 2882.18 563.533 2924.51 596.953Z" fill="url(#fill23)" fill-rule="evenodd"/><g clip-path="url(#clip24)" filter="url(#fx5)" transform="matrix(3 0 0 2.9901 2170 1563)"><g clip-path="url(#clip25)" transform="translate(-1.13687e-13 0)"><path d="M79.1591 50.4337C79.1591 34.7316 66.4022 22.0034 50.6549 22.0034 34.9162 22.0034 22.1592 34.7316 22.1592 50.4337 22.1592 66.1302 34.9162 78.8579 50.6549 78.8579 66.4022 78.8579 79.1591 66.1302 79.1591 50.4337Z" fill="#FF0000" fill-rule="evenodd"/></g></g><path d="M2381.55 1687.87C2381.55 1640.92 2343.28 1602.86 2296.04 1602.86 2248.82 1602.86 2210.55 1640.92 2210.55 1687.87 2210.55 1734.81 2248.82 1772.87 2296.04 1772.87 2343.28 1772.87 2381.55 1734.81 2381.55 1687.87Z" fill="url(#fill26)" fill-rule="evenodd"/><g clip-path="url(#clip27)" filter="url(#fx6)" transform="matrix(3 0 0 2.9901 2397 481)"><g clip-path="url(#clip28)"><path d="M79.1593 50.4306C79.1593 34.7299 66.3981 22.0035 50.6593 22.0035 34.9204 22.0035 22.1592 34.7299 22.1592 50.4306 22.1592 66.1297 34.9204 78.8578 50.6593 78.8578 66.3981 78.8578 79.1593 66.1297 79.1593 50.4306Z" fill="#FF0000" fill-rule="evenodd"/></g></g><path d="M2608.55 605.865C2608.55 558.919 2570.27 520.865 2523.05 520.865 2475.83 520.865 2437.55 558.919 2437.55 605.865 2437.55 652.807 2475.83 690.865 2523.05 690.865 2570.27 690.865 2608.55 652.807 2608.55 605.865Z" fill="url(#fill29)" fill-rule="evenodd"/><g clip-path="url(#clip30)" filter="url(#fx7)" transform="matrix(2 0 0 1.99194 1428 1425)"><g clip-path="url(#clip31)" transform="matrix(1 0 0 1 0 1.13687e-13)"><path d="M104.136 61.7933C104.136 38.0894 85.1104 18.8702 61.6299 18.8702 38.1621 18.8702 19.1362 38.0894 19.1362 61.7933 19.1362 85.497 38.1621 104.716 61.6299 104.716 85.1104 104.716 104.136 85.497 104.136 61.7933Z" fill="#FF0000" fill-rule="evenodd"/></g></g><path d="M1626.55 1538.37C1626.55 1491.15 1588.5 1452.87 1541.54 1452.87 1494.6 1452.87 1456.55 1491.15 1456.55 1538.37 1456.55 1585.58 1494.6 1623.87 1541.54 1623.87 1588.5 1623.87 1626.55 1585.58 1626.55 1538.37Z" fill="url(#fill32)" fill-rule="evenodd"/></g></svg>