<svg width="1834" height="1494" xmlns="http://www.w3.org/2000/svg" xmlns:xlink="http://www.w3.org/1999/xlink" overflow="hidden"><defs><clipPath id="clip0"><rect x="1246" y="373" width="1834" height="1494"/></clipPath><clipPath id="clip1"><rect x="2073" y="951" width="298" height="287"/></clipPath><clipPath id="clip2"><rect x="2073" y="951" width="298" height="287"/></clipPath><clipPath id="clip3"><rect x="1875" y="839" width="688" height="563"/></clipPath><clipPath id="clip4"><rect x="1875" y="839" width="688" height="563"/></clipPath></defs><g clip-path="url(#clip0)" transform="translate(-1246 -373)"><path d="M2264.45 1820C1901.93 1820 1607 1525.42 1607 1163.33 1607 870.914 1845.19 633 2137.97 633 2374.95 633 2567.75 825.571 2567.75 1062.28 2567.75 1254.39 2411.27 1410.69 2218.91 1410.69 2062.27 1410.69 1934.83 1283.41 1934.83 1126.96 1934.83 999.03 2039.04 894.953 2167.11 894.953 2272.33 894.953 2357.95 980.455 2357.95 1085.56 2357.95 1099.39 2346.73 1110.58 2332.88 1110.58 2319.05 1110.58 2307.83 1099.39 2307.83 1085.56 2307.83 1008.06 2244.7 945.004 2167.11 945.004 2066.66 945.004 1984.94 1026.63 1984.94 1126.96 1984.94 1255.81 2089.9 1360.64 2218.91 1360.64 2383.63 1360.64 2517.65 1226.8 2517.65 1062.28 2517.65 853.17 2347.32 683.052 2137.97 683.052 1872.83 683.052 1657.11 898.51 1657.11 1163.33 1657.11 1497.82 1929.57 1769.95 2264.45 1769.95 2468.91 1769.95 2661.13 1690.43 2805.69 1546.02 2950.26 1401.64 3029.89 1209.64 3029.89 1005.43 3029.89 991.608 3041.1 980.4 3054.94 980.4 3068.77 980.4 3080 991.608 3080 1005.43 3080 1223.01 2995.16 1427.57 2841.13 1581.42 2687.08 1735.27 2482.28 1820 2264.45 1820Z" fill="#9DC3E6" fill-rule="evenodd"/><path d="M1489.98 1848.1C1454.38 1874.41 1407.77 1872.02 1385.88 1842.76L1257.69 1671.43C1235.79 1642.18 1246.9 1597.12 1282.5 1570.81L1282.5 1570.81C1318.1 1544.5 1364.72 1546.9 1386.61 1576.16L1514.79 1747.47C1536.69 1776.74 1525.58 1821.79 1489.98 1848.1Z" fill="#FFC83D" fill-rule="evenodd"/><path d="M1732.7 1457.7C1755.09 1487.56 1780.6 1515.02 1808.94 1539.75L2607.31 949.741C2699.6 881.52 2763.23 784.136 2782.17 682.122 2678.41 670.772 2566.26 703.305 2473.95 771.51L1675.59 1361.54C1691.28 1395.64 1710.38 1427.81 1732.7 1457.7Z" fill="#D0CECE" fill-rule="evenodd"/><path d="M1665.85 1445.41 1602.06 1492.23C1606.26 1498.88 1610.55 1505.45 1614.96 1511.95 1619.67 1518.75 1624.45 1525.56 1629.45 1532.25L1629.65 1532.55 1629.88 1532.84C1634.91 1539.46 1640.16 1545.93 1645.47 1552.35 1650.51 1558.37 1655.66 1564.32 1660.92 1570.15L1724.72 1523.35C1747.8 1506.37 1762.36 1481.19 1763.62 1456.04L2778.31 711.001C2780.52 702.362 2782.6 693.59 2784.18 684.832 2775.2 683.847 2766.14 683.261 2757.05 682.874L1742.39 1427.91C1717.6 1421.91 1688.95 1428.44 1665.85 1445.41Z" fill="#AFABAB" fill-rule="evenodd"/><path d="M1733.62 1452.47C1716.64 1429.67 1702.15 1405.11 1690.33 1379.05L1399.83 1593.74 1501.4 1729.49 1791.9 1514.82C1770.21 1496.06 1750.71 1475.2 1733.62 1452.47Z" fill="#1F4E79" fill-rule="evenodd"/><path d="M1866.93 1731.22C1830.14 1758.39 1781.98 1755.92 1759.36 1725.68L1483.66 1357.21C1461.03 1326.97 1472.51 1280.43 1509.29 1253.24L1509.29 1253.24C1546.08 1226.06 1594.24 1228.54 1616.85 1258.76L1892.56 1627.25C1915.19 1657.49 1903.71 1704.03 1866.93 1731.22Z" fill="#222A35" fill-rule="evenodd"/><g clip-path="url(#clip1)"><g clip-path="url(#clip2)"><g clip-path="url(#clip3)"><g clip-path="url(#clip4)"><path d="M328.549-119.473C328.549-116.081 327.789-112.886 326.267-109.886 324.745-106.886 322.593-104.386 319.811-102.386L255.51-55.693 280.03 19.8251C280.726 22.0859 281.074 24.3032 281.074 26.477 281.074 29.3464 280.53 32.0637 279.443 34.6288 278.356 37.1939 276.857 39.4329 274.944 41.3458 273.031 43.2589 270.792 44.7587 268.226 45.8456 265.661 46.9326 262.944 47.476 260.075 47.476 255.553 47.476 251.422 46.1282 247.684 43.4327L183.383-3.26071 119.082 43.4327C115.429 46.1282 111.299 47.476 106.691 47.476 103.821 47.476 101.104 46.9108 98.5387 45.7804 95.9737 44.65 93.7346 43.1284 91.8217 41.2154 89.9087 39.3025 88.3871 37.0634 87.2567 34.4984 86.1263 31.9333 85.5611 29.1725 85.5611 26.2161 85.5611 24.2163 85.9089 22.0859 86.6045 19.8251L111.256-55.693 46.9542-102.386C44.1718-104.386 42.0198-106.886 40.4981-109.886 38.9763-112.886 38.2156-116.081 38.2156-119.473 38.2156-122.342 38.7808-125.06 39.9112-127.624 41.0416-130.19 42.5632-132.429 44.4762-134.342 46.3891-136.255 48.6281-137.776 51.1932-138.907 53.7583-140.036 56.4756-140.602 59.345-140.602L138.776-140.602 163.296-216.12C164.775-220.468 167.34-223.989 170.992-226.685 174.644-229.381 178.774-230.728 183.383-230.728 187.991-230.728 192.121-229.381 195.774-226.685 199.425-223.989 201.991-220.468 203.468-216.12L227.989-140.602 307.42-140.602C310.29-140.602 313.007-140.036 315.572-138.907 318.137-137.776 320.376-136.255 322.289-134.342 324.202-132.429 325.723-130.19 326.854-127.624 327.984-125.06 328.549-122.342 328.549-119.473Z" transform="matrix(1 0 0 1.00162 2036.37 1180.72)"/><path d="M309.638-119.342C309.638-118.472 309.333-117.864 308.725-117.516L234.902-63.7795C234.206-63.3448 233.858-62.6926 233.858-61.8231 233.858-61.6493 234.228-60.3667 234.967-57.9755 235.707-55.5843 236.706-52.4541 237.967-48.5846 239.228-44.7153 240.662-40.3025 242.271-35.3461 243.88-30.3898 245.553-25.3032 247.293-20.086 249.031-14.8689 250.728-9.69519 252.379-4.565 254.031 0.565191 255.553 5.23888 256.945 9.45607 258.335 13.6733 259.509 17.2384 260.466 20.1512 261.422 23.0641 262.031 24.9118 262.292 25.6945 262.379 25.8683 262.423 26.1292 262.423 26.477 262.423 27.0856 262.184 27.6074 261.705 28.0422 261.227 28.4769 260.683 28.6943 260.075 28.6943 259.466 28.6943 258.988 28.5638 258.64 28.303L255.64 26.0857C253.814 24.7814 251.401 23.0206 248.401 20.8034 245.401 18.5861 242.075 16.1297 238.423 13.4342 234.772 10.7386 230.902 7.91266 226.815 4.95628 222.729 1.9999 218.685-0.934739 214.685-3.84765 210.686-6.76054 206.86-9.54303 203.208-12.1951 199.555-14.8471 196.295-17.1948 193.426-19.2382 190.556-21.2816 188.23-22.8903 186.448-24.0641 184.666-25.2379 183.643-25.8249 183.383-25.8249 182.948-25.8249 182.469-25.6509 181.948-25.3032L108.126 28.303C107.691 28.5638 107.212 28.6943 106.691 28.6943 106.082 28.6943 105.538 28.4769 105.06 28.0422 104.582 27.6074 104.343 27.0856 104.343 26.477 104.343 26.39 104.712 25.1292 105.451 22.6946 106.191 20.2599 107.191 17.1079 108.451 13.2385 109.712 9.36912 111.147 4.95628 112.756 0 114.364-4.95628 116.016-10.0647 117.712-15.3253 119.407-20.5859 121.103-25.7596 122.799-30.8464 124.494-35.933 126.016-40.6067 127.363-44.8674 128.711-49.1281 129.863-52.7149 130.82-55.6278 131.776-58.5407 132.385-60.3884 132.645-61.171 132.733-61.3449 132.776-61.6057 132.776-61.9535 132.776-62.7361 132.472-63.3448 131.864-63.7795L57.9103-117.516C57.3016-117.951 56.9973-118.559 56.9973-119.342 56.9973-120.038 57.2147-120.603 57.6494-121.038 58.0842-121.473 58.6494-121.689 59.345-121.689L150.645-121.689C151.688-121.689 152.427-122.255 152.862-123.386L181.165-210.251C181.426-211.294 182.166-211.816 183.383-211.816 184.6-211.816 185.339-211.294 185.599-210.251L213.773-123.386C214.121-122.255 214.86-121.689 215.989-121.689L307.42-121.689C308.116-121.689 308.659-121.473 309.051-121.038 309.442-120.603 309.638-120.038 309.638-119.342Z" fill="#FFC83D" transform="matrix(1 0 0 1.00162 2036.37 1180.72)"/></g></g></g></g><path d="M2262.04 1561C2025.04 1561 1832.24 1368.27 1832.24 1131.36 1832.24 939.071 1988.72 782.65 2181.08 782.65 2337.73 782.65 2465.17 910.042 2465.17 1066.62 2465.17 1194.66 2360.96 1298.83 2232.89 1298.83 2127.66 1298.83 2042.06 1213.24 2042.06 1108.05 2042.06 1094.22 2053.28 1083.02 2067.11 1083.02 2080.96 1083.02 2092.17 1094.22 2092.17 1108.05 2092.17 1185.62 2155.31 1248.73 2232.89 1248.73 2333.35 1248.73 2415.07 1167.04 2415.07 1066.62 2415.07 937.661 2310.1 832.729 2181.08 832.729 2016.37 832.729 1882.36 966.689 1882.36 1131.36 1882.36 1340.65 2052.67 1510.9 2262.04 1510.9 2527.17 1510.9 2742.89 1295.27 2742.89 1030.21 2742.89 695.437 2470.43 423.094 2135.55 423.094 1931.1 423.094 1738.87 502.676 1594.31 647.196 1449.73 791.715 1370.11 983.871 1370.11 1188.25 1370.11 1202.09 1358.9 1213.29 1345.05 1213.29 1331.22 1213.29 1320 1202.09 1320 1188.25 1320 970.493 1404.84 765.764 1558.87 611.785 1712.91 457.807 1917.71 373 2135.55 373 2498.07 373 2793 667.817 2793 1030.21 2793 1322.89 2554.81 1561 2262.04 1561Z" fill="#40A2E7" fill-rule="evenodd"/><path d="M1503 833.5C1503 796.771 1473 767 1436 767 1399 767 1369 796.771 1369 833.5 1369 870.225 1399 900 1436 900 1473 900 1503 870.225 1503 833.5Z" fill="#EB5793" fill-rule="evenodd"/><path d="M2779 1260C2779 1223 2749.23 1193 2712.49 1193 2675.77 1193 2646 1223 2646 1260 2646 1297 2675.77 1327 2712.49 1327 2749.23 1327 2779 1297 2779 1260Z" fill="#FFC000" fill-rule="evenodd"/><path d="M2341 681.507C2341 644.775 2311.01 615 2273.99 615 2236.99 615 2207 644.775 2207 681.507 2207 718.226 2236.99 748 2273.99 748 2311.01 748 2341 718.226 2341 681.507Z" fill="#98CEF2" fill-rule="evenodd"/></g></svg>