<svg width="1313" height="1381" xmlns="http://www.w3.org/2000/svg" xmlns:xlink="http://www.w3.org/1999/xlink" overflow="hidden"><defs><filter id="fx0" x="-10%" y="-10%" width="120%" height="120%" filterUnits="userSpaceOnUse" primitiveUnits="userSpaceOnUse"><feComponentTransfer color-interpolation-filters="sRGB"><feFuncR type="discrete" tableValues="0 0"/><feFuncG type="discrete" tableValues="0 0"/><feFuncB type="discrete" tableValues="0 0"/><feFuncA type="linear" slope="0.101961" intercept="0"/></feComponentTransfer><feGaussianBlur stdDeviation="7.12963 7.15324"/></filter><filter id="fx1" x="-10%" y="-10%" width="120%" height="120%" filterUnits="userSpaceOnUse" primitiveUnits="userSpaceOnUse"><feComponentTransfer color-interpolation-filters="sRGB"><feFuncR type="discrete" tableValues="0 0"/><feFuncG type="discrete" tableValues="0 0"/><feFuncB type="discrete" tableValues="0 0"/><feFuncA type="linear" slope="0.101961" intercept="0"/></feComponentTransfer><feGaussianBlur stdDeviation="6.11111 6.13585"/></filter><filter id="fx2" x="-10%" y="-10%" width="120%" height="120%" filterUnits="userSpaceOnUse" primitiveUnits="userSpaceOnUse"><feComponentTransfer color-interpolation-filters="sRGB"><feFuncR type="discrete" tableValues="0 0"/><feFuncG type="discrete" tableValues="0 0"/><feFuncB type="discrete" tableValues="0 0"/><feFuncA type="linear" slope="0.101961" intercept="0"/></feComponentTransfer><feGaussianBlur stdDeviation="7.12963 7.15324"/></filter><filter id="fx3" x="-10%" y="-10%" width="120%" height="120%" filterUnits="userSpaceOnUse" primitiveUnits="userSpaceOnUse"><feComponentTransfer color-interpolation-filters="sRGB"><feFuncR type="discrete" tableValues="0 0"/><feFuncG type="discrete" tableValues="0 0"/><feFuncB type="discrete" tableValues="0 0"/><feFuncA type="linear" slope="0.309804" intercept="0"/></feComponentTransfer><feGaussianBlur stdDeviation="7.12963 7.12963"/></filter><filter id="fx4" x="-10%" y="-10%" width="120%" height="120%" filterUnits="userSpaceOnUse" primitiveUnits="userSpaceOnUse"><feComponentTransfer color-interpolation-filters="sRGB"><feFuncR type="discrete" tableValues="0 0"/><feFuncG type="discrete" tableValues="0 0"/><feFuncB type="discrete" tableValues="0 0"/><feFuncA type="linear" slope="0.0509804" intercept="0"/></feComponentTransfer><feGaussianBlur stdDeviation="6.1189 6.11111"/></filter><clipPath id="clip5"><rect x="1429" y="482" width="1313" height="1381"/></clipPath><linearGradient x1="1279.06" y1="1146.89" x2="2938.64" y2="1146.88" gradientUnits="userSpaceOnUse" spreadMethod="reflect" id="fill6"><stop offset="0" stop-color="#FCD03C"/><stop offset="0.00806452" stop-color="#FCD03D"/><stop offset="0.016129" stop-color="#FCD03F"/><stop offset="0.0241935" stop-color="#FCD141"/><stop offset="0.0322581" stop-color="#FCD143"/><stop offset="0.0403226" stop-color="#FCD145"/><stop offset="0.0483871" stop-color="#FCD247"/><stop offset="0.0564516" stop-color="#FCD248"/><stop offset="0.0645161" stop-color="#FCD24A"/><stop offset="0.0725806" stop-color="#FCD34C"/><stop offset="0.0806452" stop-color="#FCD34E"/><stop offset="0.0887097" stop-color="#FCD34F"/><stop offset="0.0967742" stop-color="#FCD451"/><stop offset="0.104839" stop-color="#FCD453"/><stop offset="0.112903" stop-color="#FCD555"/><stop offset="0.120968" stop-color="#FCD556"/><stop offset="0.129032" stop-color="#FCD558"/><stop offset="0.137097" stop-color="#FCD65A"/><stop offset="0.145161" stop-color="#FCD65B"/><stop offset="0.153226" stop-color="#FCD65D"/><stop offset="0.16129" stop-color="#FCD75F"/><stop offset="0.169355" stop-color="#FCD760"/><stop offset="0.177419" stop-color="#FCD762"/><stop offset="0.185484" stop-color="#FCD763"/><stop offset="0.193548" stop-color="#FCD865"/><stop offset="0.201613" stop-color="#FDD867"/><stop offset="0.209677" stop-color="#FDD868"/><stop offset="0.217742" stop-color="#FDD96A"/><stop offset="0.225806" stop-color="#FDD96B"/><stop offset="0.233871" stop-color="#FDD96D"/><stop offset="0.241935" stop-color="#FDDA6E"/><stop offset="0.25" stop-color="#FDDA70"/><stop offset="0.258065" stop-color="#FDDA71"/><stop offset="0.266129" stop-color="#FDDB73"/><stop offset="0.274194" stop-color="#FDDB74"/><stop offset="0.282258" stop-color="#FDDB75"/><stop offset="0.290323" stop-color="#FDDB77"/><stop offset="0.298387" stop-color="#FDDC78"/><stop offset="0.306452" stop-color="#FDDC7A"/><stop offset="0.314516" stop-color="#FDDC7B"/><stop offset="0.322581" stop-color="#FDDC7C"/><stop offset="0.330645" stop-color="#FDDD7E"/><stop offset="0.33871" stop-color="#FDDD7F"/><stop offset="0.346774" stop-color="#FDDD80"/><stop offset="0.354839" stop-color="#FDDE82"/><stop offset="0.362903" stop-color="#FDDE83"/><stop offset="0.370968" stop-color="#FDDE84"/><stop offset="0.379032" stop-color="#FDDE85"/><stop offset="0.387097" stop-color="#FDDF87"/><stop offset="0.395161" stop-color="#FDDF88"/><stop offset="0.403226" stop-color="#FDDF89"/><stop offset="0.41129" stop-color="#FDDF8A"/><stop offset="0.419355" stop-color="#FDDF8B"/><stop offset="0.427419" stop-color="#FDE08D"/><stop offset="0.435484" stop-color="#FDE08E"/><stop offset="0.443548" stop-color="#FEE08F"/><stop offset="0.451613" stop-color="#FEE090"/><stop offset="0.459677" stop-color="#FEE191"/><stop offset="0.467742" stop-color="#FEE192"/><stop offset="0.475806" stop-color="#FEE193"/><stop offset="0.483871" stop-color="#FEE194"/><stop offset="0.491935" stop-color="#FEE195"/><stop offset="0.5" stop-color="#FEE296"/><stop offset="0.508065" stop-color="#FEE297"/><stop offset="0.516129" stop-color="#FEE298"/><stop offset="0.524194" stop-color="#FEE299"/><stop offset="0.532258" stop-color="#FEE29A"/><stop offset="0.540323" stop-color="#FEE39B"/><stop offset="0.548387" stop-color="#FEE39C"/><stop offset="0.556452" stop-color="#FEE39D"/><stop offset="0.564516" stop-color="#FEE39E"/><stop offset="0.572581" stop-color="#FEE39F"/><stop offset="0.580645" stop-color="#FEE4A0"/><stop offset="0.58871" stop-color="#FEE4A1"/><stop offset="0.596774" stop-color="#FEE4A2"/><stop offset="0.604839" stop-color="#FEE4A3"/><stop offset="0.612903" stop-color="#FEE4A3"/><stop offset="0.620968" stop-color="#FEE4A4"/><stop offset="0.629032" stop-color="#FEE5A5"/><stop offset="0.637097" stop-color="#FEE5A6"/><stop offset="0.645161" stop-color="#FEE5A7"/><stop offset="0.653226" stop-color="#FEE5A7"/><stop offset="0.66129" stop-color="#FEE5A8"/><stop offset="0.669355" stop-color="#FEE5A9"/><stop offset="0.677419" stop-color="#FEE6AA"/><stop offset="0.685484" stop-color="#FEE6AA"/><stop offset="0.693548" stop-color="#FEE6AB"/><stop offset="0.701613" stop-color="#FEE6AC"/><stop offset="0.709677" stop-color="#FEE6AC"/><stop offset="0.717742" stop-color="#FEE6AD"/><stop offset="0.725806" stop-color="#FEE6AD"/><stop offset="0.733871" stop-color="#FEE6AE"/><stop offset="0.741935" stop-color="#FEE7AF"/><stop offset="0.75" stop-color="#FEE7AF"/><stop offset="0.758065" stop-color="#FEE7B0"/><stop offset="0.766129" stop-color="#FEE7B0"/><stop offset="0.774194" stop-color="#FEE7B1"/><stop offset="0.782258" stop-color="#FEE7B1"/><stop offset="0.790323" stop-color="#FEE7B2"/><stop offset="0.798387" stop-color="#FEE7B2"/><stop offset="0.806452" stop-color="#FEE7B3"/><stop offset="0.814516" stop-color="#FEE7B3"/><stop offset="0.822581" stop-color="#FEE8B4"/><stop offset="0.830645" stop-color="#FEE8B4"/><stop offset="0.83871" stop-color="#FEE8B4"/><stop offset="0.846774" stop-color="#FEE8B5"/><stop offset="0.854839" stop-color="#FEE8B5"/><stop offset="0.862903" stop-color="#FEE8B5"/><stop offset="0.870968" stop-color="#FEE8B6"/><stop offset="0.879032" stop-color="#FEE8B6"/><stop offset="0.887097" stop-color="#FEE8B6"/><stop offset="0.895161" stop-color="#FEE8B7"/><stop offset="0.903226" stop-color="#FEE8B7"/><stop offset="0.91129" stop-color="#FEE8B7"/><stop offset="0.919355" stop-color="#FEE8B7"/><stop offset="0.927419" stop-color="#FEE8B8"/><stop offset="0.935484" stop-color="#FEE8B8"/><stop offset="0.943548" stop-color="#FEE8B8"/><stop offset="0.951613" stop-color="#FEE8B8"/><stop offset="0.959677" stop-color="#FEE8B8"/><stop offset="0.967742" stop-color="#FEE8B8"/><stop offset="0.975806" stop-color="#FEE8B8"/><stop offset="0.983871" stop-color="#FEE8B8"/><stop offset="0.991935" stop-color="#FEE8B8"/><stop offset="1" stop-color="#FFE9B9"/></linearGradient><linearGradient x1="2108.85" y1="252.45" x2="2108.85" y2="2041.32" gradientUnits="userSpaceOnUse" spreadMethod="reflect" id="fill7"><stop offset="0" stop-color="#9DC3E6"/><stop offset="0.012987" stop-color="#9CC2E6"/><stop offset="0.025974" stop-color="#9CC2E6"/><stop offset="0.038961" stop-color="#9CC2E6"/><stop offset="0.0519481" stop-color="#9CC2E6"/><stop offset="0.0649351" stop-color="#9CC2E6"/><stop offset="0.0779221" stop-color="#9CC2E6"/><stop offset="0.0909091" stop-color="#9CC2E6"/><stop offset="0.103896" stop-color="#9BC2E6"/><stop offset="0.116883" stop-color="#9BC2E6"/><stop offset="0.12987" stop-color="#9BC2E6"/><stop offset="0.142857" stop-color="#9AC2E6"/><stop offset="0.155844" stop-color="#9AC2E6"/><stop offset="0.168831" stop-color="#9AC2E6"/><stop offset="0.181818" stop-color="#99C2E6"/><stop offset="0.194805" stop-color="#99C2E6"/><stop offset="0.207792" stop-color="#98C2E6"/><stop offset="0.220779" stop-color="#98C2E6"/><stop offset="0.233766" stop-color="#97C2E6"/><stop offset="0.246753" stop-color="#97C2E6"/><stop offset="0.25974" stop-color="#96C2E6"/><stop offset="0.272727" stop-color="#96C1E6"/><stop offset="0.285714" stop-color="#95C1E6"/><stop offset="0.298701" stop-color="#94C1E6"/><stop offset="0.311688" stop-color="#94C1E6"/><stop offset="0.324675" stop-color="#93C1E6"/><stop offset="0.337662" stop-color="#92C1E6"/><stop offset="0.350649" stop-color="#92C1E6"/><stop offset="0.363636" stop-color="#91C1E6"/><stop offset="0.376623" stop-color="#90C1E6"/><stop offset="0.38961" stop-color="#8FC0E6"/><stop offset="0.402597" stop-color="#8EC0E6"/><stop offset="0.415584" stop-color="#8DC0E6"/><stop offset="0.428571" stop-color="#8DC0E6"/><stop offset="0.441558" stop-color="#8CC0E6"/><stop offset="0.454545" stop-color="#8BC0E6"/><stop offset="0.467532" stop-color="#8AC0E6"/><stop offset="0.480519" stop-color="#89BFE6"/><stop offset="0.493506" stop-color="#88BFE6"/><stop offset="0.506494" stop-color="#87BFE6"/><stop offset="0.519481" stop-color="#86BFE6"/><stop offset="0.532468" stop-color="#85BFE6"/><stop offset="0.545455" stop-color="#83BFE6"/><stop offset="0.558442" stop-color="#82BEE6"/><stop offset="0.571429" stop-color="#81BEE6"/><stop offset="0.584416" stop-color="#80BEE6"/><stop offset="0.597403" stop-color="#7FBEE6"/><stop offset="0.61039" stop-color="#7EBEE6"/><stop offset="0.623377" stop-color="#7CBEE6"/><stop offset="0.636364" stop-color="#7BBDE6"/><stop offset="0.649351" stop-color="#7ABDE6"/><stop offset="0.662338" stop-color="#78BDE6"/><stop offset="0.675325" stop-color="#77BDE6"/><stop offset="0.688312" stop-color="#76BDE6"/><stop offset="0.701299" stop-color="#74BCE6"/><stop offset="0.714286" stop-color="#73BCE6"/><stop offset="0.727273" stop-color="#72BCE6"/><stop offset="0.74026" stop-color="#70BCE6"/><stop offset="0.753247" stop-color="#6FBBE6"/><stop offset="0.766234" stop-color="#6DBBE6"/><stop offset="0.779221" stop-color="#6CBBE6"/><stop offset="0.792208" stop-color="#6ABBE6"/><stop offset="0.805195" stop-color="#69BBE6"/><stop offset="0.818182" stop-color="#67BAE6"/><stop offset="0.831169" stop-color="#65BAE6"/><stop offset="0.844156" stop-color="#64BAE6"/><stop offset="0.857143" stop-color="#62BAE6"/><stop offset="0.87013" stop-color="#60B9E6"/><stop offset="0.883117" stop-color="#5FB9E6"/><stop offset="0.896104" stop-color="#5DB9E6"/><stop offset="0.909091" stop-color="#5BB8E6"/><stop offset="0.922078" stop-color="#5AB8E6"/><stop offset="0.935065" stop-color="#58B8E6"/><stop offset="0.948052" stop-color="#56B8E6"/><stop offset="0.961039" stop-color="#54B7E6"/><stop offset="0.974026" stop-color="#52B7E6"/><stop offset="0.987013" stop-color="#50B7E6"/><stop offset="1" stop-color="#4FB7E7"/></linearGradient><clipPath id="clip8"><rect x="-7.33331" y="-7.35762" width="117.667" height="113.709"/></clipPath><clipPath id="clip9"><rect x="0" y="0" width="101" height="101"/></clipPath><linearGradient x1="2438.05" y1="520.367" x2="2608.05" y2="691.364" gradientUnits="userSpaceOnUse" spreadMethod="reflect" id="fill10"><stop offset="0" stop-color="#EF84CF"/><stop offset="0.42" stop-color="#F87490"/><stop offset="1" stop-color="#F991A7"/></linearGradient><clipPath id="clip11"><rect x="-3.5" y="-6.52631" width="132" height="135.045"/></clipPath><clipPath id="clip12"><rect x="0" y="0" width="123" height="124"/></clipPath><linearGradient x1="1456.05" y1="1453.37" x2="1627.05" y2="1623.36" gradientUnits="userSpaceOnUse" spreadMethod="reflect" id="fill13"><stop offset="0" stop-color="#FFCA5A"/><stop offset="0.5" stop-color="#FFCA5A"/><stop offset="1" stop-color="#FEC1A2"/></linearGradient><clipPath id="clip14"><rect x="-7.33331" y="-7.3576" width="117.667" height="113.709"/></clipPath><clipPath id="clip15"><rect x="0" y="0" width="101" height="101"/></clipPath><linearGradient x1="2211.05" y1="1602.37" x2="2381.05" y2="1773.36" gradientUnits="userSpaceOnUse" spreadMethod="reflect" id="fill16"><stop offset="0" stop-color="#2A8EDA"/><stop offset="0.21" stop-color="#2CA7D8"/><stop offset="1" stop-color="#6FC6F5"/></linearGradient><clipPath id="clip17"><rect x="-7.33331" y="-7.33333" width="366.667" height="290.667"/></clipPath><clipPath id="clip18"><rect x="0" y="0" width="353" height="276"/></clipPath><linearGradient x1="1777.04" y1="642.823" x2="2445.4" y2="1533.01" gradientUnits="userSpaceOnUse" spreadMethod="reflect" id="fill19"><stop offset="0" stop-color="#37B3A2"/><stop offset="0.59" stop-color="#5BCDBD"/><stop offset="1" stop-color="#5BCDBD"/></linearGradient><clipPath id="clip20"><rect x="-3.50446" y="-3.5" width="401.01" height="387"/></clipPath><clipPath id="clip21"><rect x="0" y="0" width="393" height="378"/></clipPath><linearGradient x1="1772.34" y1="726.367" x2="2451.75" y2="1434.75" gradientUnits="userSpaceOnUse" spreadMethod="reflect" id="fill22"><stop offset="0" stop-color="#FFCA5A"/><stop offset="0.5" stop-color="#FFCA5A"/><stop offset="1" stop-color="#F19745"/></linearGradient></defs><g clip-path="url(#clip5)" transform="translate(-1429 -482)"><path d="M1522.11 1143C1524.26 818.955 1788.69 558.001 2112.73 560.146 2436.78 562.291 2697.74 826.722 2695.59 1150.77 2693.45 1474.82 2429.01 1735.77 2104.97 1733.63 1951.59 1732.61 1804.71 1671.58 1695.78 1563.6L1757.56 1501.27C1953.28 1695.28 2269.22 1693.89 2463.23 1498.17 2657.24 1302.45 2655.86 986.516 2460.14 792.506 2264.42 598.496 1948.48 599.881 1754.47 795.599 1662.64 888.236 1610.74 1013.15 1609.87 1143.58Z" fill="url(#fill6)" fill-rule="evenodd"/><path d="M1476.4 1143.51C1478.26 794.213 1762.94 512.567 2112.23 514.433 2461.52 516.299 2743.17 800.971 2741.3 1150.27 2739.44 1499.56 2454.77 1781.21 2105.47 1779.34 1939.87 1778.45 1781.21 1712.65 1663.6 1596.06L1730.2 1528.87C1941.16 1738 2281.71 1736.5 2490.84 1525.54 2699.96 1314.57 2698.47 974.023 2487.5 764.899 2276.54 555.775 1935.99 557.268 1726.86 768.234 1627.71 868.256 1571.75 1003.18 1571 1144.01Z" fill="url(#fill7)" fill-rule="evenodd"/><g clip-path="url(#clip8)" filter="url(#fx0)" transform="matrix(3 0 0 2.9901 2397 481)"><g clip-path="url(#clip9)"><path d="M79.1593 50.4306C79.1593 34.7299 66.3981 22.0035 50.6593 22.0035 34.9204 22.0035 22.1592 34.7299 22.1592 50.4306 22.1592 66.1297 34.9204 78.8578 50.6593 78.8578 66.3981 78.8578 79.1593 66.1297 79.1593 50.4306Z" fill="#FF0000" fill-rule="evenodd"/></g></g><path d="M2608.55 605.865C2608.55 558.919 2570.27 520.865 2523.05 520.865 2475.83 520.865 2437.55 558.919 2437.55 605.865 2437.55 652.807 2475.83 690.865 2523.05 690.865 2570.27 690.865 2608.55 652.807 2608.55 605.865Z" fill="url(#fill10)" fill-rule="evenodd"/><g clip-path="url(#clip11)" filter="url(#fx1)" transform="matrix(2 0 0 1.99194 1428 1425)"><g clip-path="url(#clip12)" transform="matrix(1 0 0 1 0 1.13687e-13)"><path d="M104.136 61.7933C104.136 38.0894 85.1104 18.8702 61.6299 18.8702 38.1621 18.8702 19.1362 38.0894 19.1362 61.7933 19.1362 85.497 38.1621 104.716 61.6299 104.716 85.1104 104.716 104.136 85.497 104.136 61.7933Z" fill="#FF0000" fill-rule="evenodd"/></g></g><path d="M1626.55 1538.37C1626.55 1491.15 1588.5 1452.87 1541.54 1452.87 1494.6 1452.87 1456.55 1491.15 1456.55 1538.37 1456.55 1585.58 1494.6 1623.87 1541.54 1623.87 1588.5 1623.87 1626.55 1585.58 1626.55 1538.37Z" fill="url(#fill13)" fill-rule="evenodd"/><g clip-path="url(#clip14)" filter="url(#fx2)" transform="matrix(3 0 0 2.9901 2170 1563)"><g clip-path="url(#clip15)" transform="translate(-1.13687e-13 0)"><path d="M79.1591 50.4337C79.1591 34.7316 66.4022 22.0034 50.6549 22.0034 34.9162 22.0034 22.1592 34.7316 22.1592 50.4337 22.1592 66.1302 34.9162 78.8579 50.6549 78.8579 66.4022 78.8579 79.1591 66.1302 79.1591 50.4337Z" fill="#FF0000" fill-rule="evenodd"/></g></g><path d="M2381.55 1687.87C2381.55 1640.92 2343.28 1602.86 2296.04 1602.86 2248.82 1602.86 2210.55 1640.92 2210.55 1687.87 2210.55 1734.81 2248.82 1772.87 2296.04 1772.87 2343.28 1772.87 2381.55 1734.81 2381.55 1687.87Z" fill="url(#fill16)" fill-rule="evenodd"/><g clip-path="url(#clip17)" filter="url(#fx3)" transform="matrix(3 0 0 3 1608 700)"><g clip-path="url(#clip18)" transform="matrix(1 0 0 1 0 -2.84217e-14)"><path d="M38.558 221.332 21.8836 233.574C22.9815 235.313 24.1029 237.031 25.2556 238.73 26.4868 240.508 27.7362 242.289 29.0432 244.038L29.0955 244.117 29.1556 244.193C30.4705 245.924 31.8428 247.615 33.2307 249.294 34.5482 250.868 35.8944 252.424 37.2693 253.948L53.9463 241.711C59.9793 237.271 63.7853 230.687 64.1146 224.111L329.349 29.3027C329.927 27.0438 330.471 24.7501 330.884 22.4602 328.536 22.2026 326.168 22.0494 323.792 21.9482L58.5652 216.756C52.0852 215.187 44.5962 216.895 38.558 221.332Z" fill="#FF0000" fill-rule="evenodd"/></g></g><path d="M1697.75 1338.07 1647.72 1374.79C1651.02 1380.01 1654.38 1385.17 1657.84 1390.26 1661.53 1395.6 1665.28 1400.94 1669.2 1406.19L1669.36 1406.42 1669.54 1406.65C1673.48 1411.84 1677.6 1416.92 1681.76 1421.95 1685.72 1426.68 1689.76 1431.34 1693.88 1435.92L1743.91 1399.21C1762.01 1385.89 1773.43 1366.13 1774.42 1346.41L2570.12 761.981C2571.85 755.204 2573.48 748.323 2574.72 741.453 2567.68 740.681 2560.58 740.221 2553.45 739.917L1757.77 1324.34C1738.33 1319.63 1715.86 1324.76 1697.75 1338.07Z" fill="url(#fill19)" fill-rule="evenodd"/><g clip-path="url(#clip20)" filter="url(#fx4)" transform="matrix(1.99746 0 0 2 1729 712)"><g clip-path="url(#clip21)" transform="translate(-1.13687e-13 0)"><path d="M374.111 155.108C374.111 159.253 373.181 163.158 371.321 166.824 369.46 170.491 366.829 173.546 363.428 175.99L284.816 233.055 314.793 325.348C315.644 328.11 316.069 330.82 316.069 333.477 316.069 336.984 315.404 340.305 314.075 343.439 312.746 346.574 310.914 349.311 308.575 351.648 306.236 353.987 303.499 355.819 300.362 357.148 297.226 358.476 293.904 359.141 290.397 359.141 284.868 359.141 279.818 357.493 275.248 354.199L196.636 297.134 118.023 354.199C113.557 357.493 108.508 359.141 102.874 359.141 99.3658 359.141 96.0439 358.45 92.9077 357.068 89.7718 355.687 87.0343 353.827 84.6956 351.489 82.3568 349.151 80.4967 346.415 79.1148 343.28 77.7326 340.145 77.0416 336.771 77.0416 333.158 77.0416 330.714 77.467 328.11 78.3173 325.348L108.456 233.055 29.8422 175.99C26.4404 173.546 23.8094 170.491 21.9493 166.824 20.0888 163.158 19.1586 159.253 19.1586 155.108 19.1586 151.601 19.8498 148.28 21.2317 145.146 22.6136 142.01 24.4737 139.274 26.8129 136.936 29.1513 134.598 31.8887 132.739 35.0246 131.357 38.1608 129.977 41.4827 129.285 44.9907 129.285L142.1 129.285 172.078 36.993C173.886 31.6793 177.022 27.3762 181.487 24.0812 185.952 20.7862 191.001 19.1403 196.636 19.1403 202.269 19.1403 207.318 20.7862 211.784 24.0812 216.248 27.3762 219.385 31.6793 221.191 36.993L251.169 129.285 348.279 129.285C351.788 129.285 355.109 129.977 358.246 131.357 361.381 132.739 364.119 134.598 366.457 136.936 368.796 139.274 370.656 142.01 372.038 145.146 373.42 148.28 374.111 151.601 374.111 155.108Z" fill="#FF0000" fill-rule="evenodd"/></g></g><path d="M2466.55 1012.49C2466.55 1020.78 2464.69 1028.59 2460.97 1035.93 2457.26 1043.26 2452 1049.37 2445.21 1054.26L2288.18 1168.39 2348.06 1352.97C2349.76 1358.5 2350.61 1363.92 2350.61 1369.23 2350.61 1376.24 2349.28 1382.89 2346.63 1389.16 2343.97 1395.43 2340.31 1400.9 2335.64 1405.57 2330.97 1410.25 2325.5 1413.92 2319.24 1416.57 2312.97 1419.23 2306.34 1420.56 2299.33 1420.56 2288.29 1420.56 2278.2 1417.26 2269.07 1410.68L2112.05 1296.54 1955.02 1410.68C1946.1 1417.26 1936.02 1420.56 1924.76 1420.56 1917.76 1420.56 1911.12 1419.18 1904.86 1416.41 1898.59 1413.65 1893.12 1409.93 1888.45 1405.26 1883.78 1400.58 1880.07 1395.11 1877.31 1388.84 1874.54 1382.57 1873.16 1375.82 1873.16 1368.59 1873.16 1363.71 1874.01 1358.5 1875.71 1352.97L1935.91 1168.39 1778.89 1054.26C1772.09 1049.37 1766.84 1043.26 1763.12 1035.93 1759.4 1028.59 1757.55 1020.78 1757.55 1012.49 1757.55 1005.48 1758.93 998.837 1761.69 992.569 1764.45 986.298 1768.16 980.825 1772.83 976.149 1777.51 971.474 1782.97 967.756 1789.24 964.991 1795.5 962.232 1802.14 960.848 1809.14 960.848L2003.12 960.848 2062.99 776.263C2066.61 765.636 2072.87 757.03 2081.79 750.44 2090.71 743.85 2100.79 740.558 2112.05 740.558 2123.3 740.558 2133.39 743.85 2142.31 750.44 2151.22 757.03 2157.49 765.636 2161.1 776.263L2220.98 960.848 2414.95 960.848C2421.96 960.848 2428.59 962.232 2434.86 964.991 2441.12 967.756 2446.59 971.474 2451.26 976.149 2455.93 980.825 2459.65 986.298 2462.41 992.569 2465.17 998.837 2466.55 1005.48 2466.55 1012.49Z" fill="url(#fill22)" fill-rule="evenodd"/></g></svg>