<?xml version="1.0" standalone="no"?>
<!DOCTYPE svg PUBLIC "-//W3C//DTD SVG 20010904//EN"
 "http://www.w3.org/TR/2001/REC-SVG-20010904/DTD/svg10.dtd">
<svg version="1.0" xmlns="http://www.w3.org/2000/svg"
 width="1834.000000pt" height="1834.000000pt" viewBox="0 0 1834.000000 1834.000000"
 preserveAspectRatio="xMidYMid meet">
<metadata>
Created by potrace 1.14, written by Peter Selinger 2001-2017
</metadata>
<g transform="translate(0.000000,1834.000000) scale(0.100000,-0.100000)"
fill="#000000" stroke="none">
<path d="M8528 16635 c-2 -2 -55 -6 -118 -9 -63 -4 -137 -9 -165 -12 -27 -2
-75 -7 -105 -9 -30 -2 -76 -7 -102 -10 -27 -3 -69 -7 -95 -10 -27 -2 -64 -7
-83 -9 -19 -3 -55 -8 -80 -11 -25 -3 -97 -15 -160 -25 -63 -11 -134 -22 -156
-25 -23 -3 -86 -14 -140 -26 -55 -11 -110 -22 -124 -25 -14 -2 -38 -7 -55 -11
-16 -4 -34 -8 -40 -9 -567 -121 -1228 -354 -1800 -634 -697 -341 -1391 -817
-1950 -1339 -178 -167 -489 -488 -606 -626 -19 -22 -37 -42 -40 -45 -3 -3 -30
-34 -60 -70 -29 -36 -56 -67 -59 -70 -3 -3 -30 -36 -60 -75 -30 -38 -57 -72
-60 -75 -40 -34 -446 -616 -531 -762 l-27 -45 -70 -6 c-255 -24 -478 -191
-566 -425 -34 -90 -38 -112 -42 -217 -5 -146 34 -280 115 -399 13 -20 17 -34
10 -45 -55 -100 -272 -731 -333 -971 -4 -14 -18 -70 -32 -125 -15 -55 -27
-104 -28 -110 -4 -17 -46 -208 -56 -250 -9 -39 -26 -123 -36 -181 -3 -16 -7
-40 -10 -54 -10 -57 -42 -264 -49 -325 -4 -27 -8 -61 -11 -75 -2 -14 -6 -54
-9 -90 -3 -36 -8 -76 -10 -90 -3 -14 -8 -56 -11 -95 -3 -38 -7 -92 -10 -120
-10 -121 -19 -345 -19 -520 0 -176 2 -193 22 -230 78 -145 265 -181 387 -74
76 67 84 100 91 369 3 129 8 251 10 270 2 19 6 80 10 135 7 115 10 147 20 230
3 33 8 78 10 100 3 22 7 56 10 75 3 19 7 55 10 80 4 37 51 313 70 413 3 15 7
37 9 50 11 61 80 350 107 449 80 296 192 636 279 848 l23 55 87 -2 c302 -6
569 189 655 482 10 34 19 103 21 160 4 115 -18 220 -66 315 -29 57 -96 152
-112 158 -16 7 -7 24 88 170 130 198 399 570 444 612 3 3 23 28 45 55 188 236
557 623 807 847 87 78 256 221 373 317 41 33 262 199 315 237 768 540 1555
911 2445 1153 106 28 343 85 395 94 14 3 86 17 160 31 178 34 317 56 440 71
45 5 109 13 165 20 17 2 68 7 114 11 47 3 96 8 110 9 196 25 959 25 1151 1 14
-2 57 -7 95 -10 92 -9 277 -34 340 -46 28 -5 64 -11 80 -14 123 -19 377 -76
540 -121 834 -229 1595 -625 2265 -1179 188 -156 210 -175 435 -401 238 -237
464 -499 612 -710 74 -105 119 -170 126 -181 4 -7 -24 -19 -81 -34 -314 -82
-689 -233 -1002 -404 -195 -106 -323 -186 -524 -329 l-168 -120 -35 39 c-95
106 -248 257 -379 374 -184 164 -464 364 -701 499 -91 52 -93 53 -93 90 0 127
-56 284 -140 391 -33 42 -52 61 -125 124 -46 39 -162 95 -242 115 -101 26
-262 22 -358 -8 -118 -38 -241 -117 -311 -200 -27 -33 -24 -32 -104 -17 -86
16 -106 19 -210 31 -30 4 -66 9 -80 11 -122 19 -629 26 -830 11 -192 -14 -243
-20 -415 -46 -71 -11 -148 -23 -170 -26 -22 -3 -48 -8 -57 -11 -10 -3 -30 -7
-45 -10 -99 -17 -390 -91 -445 -113 -16 -6 -28 -9 -28 -7 0 7 -344 -112 -417
-144 -13 -6 -33 -14 -45 -19 -375 -147 -826 -401 -1168 -655 -107 -80 -305
-241 -365 -297 -22 -21 -51 -47 -65 -59 -76 -65 -303 -298 -402 -410 -89 -102
-92 -105 -118 -140 -14 -18 -33 -42 -43 -54 -10 -11 -28 -34 -40 -49 -12 -16
-32 -41 -43 -55 -105 -131 -308 -445 -421 -652 -111 -202 -281 -567 -307 -660
-4 -14 -11 -34 -16 -45 -52 -115 -195 -611 -224 -779 -3 -16 -10 -52 -15 -80
-6 -28 -13 -69 -16 -91 -3 -22 -7 -47 -10 -55 -2 -8 -6 -37 -10 -65 -3 -27 -8
-63 -11 -80 -2 -16 -7 -50 -9 -75 -2 -25 -7 -63 -9 -85 -28 -236 -28 -908 -1
-1110 2 -16 7 -57 10 -90 3 -33 10 -97 16 -143 6 -46 9 -85 8 -87 -2 -2 -25
16 -52 40 -127 117 -353 172 -572 140 -67 -9 -217 -61 -285 -97 -184 -99 -336
-255 -420 -432 -52 -109 -72 -192 -76 -311 -3 -119 11 -190 58 -283 24 -48
505 -706 641 -877 4 -5 32 -44 63 -85 30 -41 60 -82 67 -90 40 -49 117 -159
117 -166 0 -5 -50 -45 -111 -89 -61 -44 -120 -88 -132 -97 -19 -14 -107 -79
-182 -134 -11 -8 -60 -44 -110 -81 -49 -37 -229 -170 -400 -296 -170 -126
-321 -237 -335 -247 -14 -10 -74 -55 -135 -100 -60 -45 -117 -86 -125 -93 -63
-49 -131 -97 -138 -97 -5 0 -42 44 -82 97 -101 133 -115 148 -192 199 -289
193 -722 119 -1014 -172 -243 -242 -317 -591 -179 -839 18 -33 87 -131 152
-217 65 -86 126 -167 135 -180 10 -13 95 -128 190 -254 95 -127 182 -244 193
-258 11 -15 45 -60 75 -100 88 -116 96 -127 154 -206 31 -41 59 -79 64 -85 4
-5 94 -125 199 -266 105 -141 214 -276 242 -301 166 -150 445 -192 696 -106
237 81 439 255 548 473 72 144 94 327 56 473 -23 89 -64 165 -157 287 l-68 89
196 146 c109 80 210 154 225 165 15 11 37 28 49 37 32 24 855 632 1011 747 72
52 132 98 135 101 3 3 18 14 34 24 24 15 30 16 41 4 7 -7 214 -283 461 -613
247 -330 466 -617 487 -638 60 -60 148 -112 244 -143 79 -26 101 -29 218 -29
72 1 148 4 170 9 78 16 230 76 309 123 87 52 271 224 300 281 9 17 22 32 28
32 6 0 61 -33 122 -73 158 -105 269 -172 446 -269 129 -71 443 -228 455 -228
2 0 32 -13 67 -29 201 -93 693 -269 853 -307 6 -1 62 -16 125 -33 117 -31 314
-75 405 -91 28 -5 102 -18 165 -29 63 -11 135 -23 160 -26 25 -3 56 -7 70 -9
14 -3 52 -8 85 -11 33 -3 71 -7 85 -10 28 -4 106 -11 260 -22 214 -16 890 -8
1065 12 22 2 72 7 110 10 70 6 102 9 205 20 62 7 81 9 195 26 44 6 89 12 100
14 94 13 142 21 290 50 94 19 182 36 195 39 149 29 467 112 675 177 72 23 145
45 163 51 132 38 540 197 767 298 155 69 592 289 635 320 15 11 38 24 51 30
13 6 39 19 56 30 18 11 79 47 135 81 176 105 511 330 623 417 6 4 60 45 120
91 94 72 316 252 351 286 6 5 39 35 74 65 143 124 184 163 385 365 325 325
529 561 773 890 61 83 120 161 130 175 19 25 168 247 234 350 125 192 427 739
430 777 0 4 9 20 19 35 10 14 19 29 19 32 0 3 16 41 36 83 50 107 151 344 180
423 13 36 28 74 34 85 16 36 87 237 138 395 104 321 220 787 266 1070 17 103
46 291 51 335 4 28 8 57 10 65 2 8 7 47 10 85 4 39 8 81 10 95 2 14 7 61 10
105 4 44 8 91 10 105 9 60 19 311 19 505 1 201 0 212 -22 254 -71 135 -240
176 -366 90 -40 -27 -92 -102 -100 -144 -3 -16 -8 -131 -11 -255 -3 -124 -8
-245 -10 -270 -2 -25 -7 -85 -10 -135 -7 -91 -9 -111 -20 -220 -7 -75 -21
-188 -30 -245 -2 -14 -7 -45 -10 -70 -53 -381 -173 -883 -304 -1275 -58 -173
-107 -311 -121 -340 -5 -11 -27 -65 -49 -120 -118 -302 -341 -752 -501 -1015
-99 -161 -197 -315 -258 -404 -75 -110 -294 -410 -316 -432 -6 -6 -24 -29 -41
-50 -44 -56 -240 -287 -299 -353 -146 -162 -536 -540 -681 -662 -22 -19 -44
-39 -50 -45 -29 -32 -336 -271 -485 -379 -817 -590 -1740 -1007 -2745 -1241
-11 -3 -31 -7 -45 -10 -14 -3 -52 -11 -85 -19 -33 -7 -76 -16 -95 -19 -19 -3
-46 -8 -60 -11 -47 -10 -315 -54 -365 -60 -27 -4 -61 -8 -75 -10 -14 -2 -52
-7 -85 -10 -33 -3 -71 -8 -85 -10 -14 -3 -59 -7 -100 -11 -41 -3 -91 -7 -110
-9 -262 -27 -922 -27 -1170 0 -75 9 -121 14 -215 26 -119 14 -123 15 -175 23
-25 4 -58 10 -75 12 -145 22 -512 107 -705 165 -602 180 -1143 435 -1655 780
-236 158 -224 147 -259 241 -38 101 -21 76 -423 613 -361 484 -377 505 -372
509 2 1 49 36 104 76 55 40 147 108 205 151 58 42 292 215 520 383 228 169
422 312 430 319 8 7 30 23 48 36 l34 24 81 -80 c112 -109 172 -164 237 -215
30 -23 60 -48 65 -54 6 -6 57 -46 115 -89 576 -424 1153 -669 1881 -800 14 -3
43 -7 65 -10 21 -2 57 -7 79 -10 165 -23 299 -30 560 -30 218 0 446 9 502 19
10 2 50 7 88 11 39 4 77 8 85 10 8 1 38 6 65 9 75 11 92 14 190 31 50 9 104
19 120 21 128 22 514 129 680 189 55 20 114 41 130 47 17 5 39 14 50 18 11 5
58 25 105 44 304 123 642 306 944 509 85 57 335 242 346 256 3 4 25 22 50 41
103 80 190 159 376 345 244 244 397 422 577 675 l82 115 95 0 c140 0 207 16
325 78 80 43 212 173 258 257 128 234 110 523 -45 729 -23 31 -45 57 -48 59
-4 1 19 79 51 172 32 94 57 173 57 176 0 2 11 48 26 102 36 136 76 301 82 342
3 19 7 42 9 50 2 8 6 29 9 45 2 17 11 73 20 125 22 138 26 167 42 315 25 242
25 948 0 1082 -2 10 -7 54 -11 98 -8 95 -12 128 -25 220 -6 39 -13 86 -15 105
-3 19 -6 44 -9 55 -2 11 -7 40 -10 65 -4 25 -11 65 -16 90 -6 25 -12 56 -14
70 -2 14 -18 88 -36 165 -17 77 -34 151 -36 165 -3 14 -11 45 -19 70 -8 25
-30 104 -51 175 -38 134 -132 412 -176 522 l-25 62 44 93 c70 145 147 340 197
498 26 80 54 150 63 157 24 18 83 273 63 273 -5 0 -10 7 -10 15 0 8 -3 15 -7
15 -5 0 -42 4 -83 8 -154 15 -614 7 -765 -12 -28 -4 -34 2 -100 102 -81 125
-223 327 -274 392 -20 24 -41 51 -48 60 -80 104 -210 259 -323 385 -102 114
-434 438 -560 546 -359 307 -710 555 -1095 771 -139 78 -412 216 -530 268 -27
12 -63 27 -80 35 -379 170 -968 349 -1400 425 -27 5 -61 11 -75 14 -23 5 -196
30 -280 42 -19 2 -51 7 -70 9 -19 3 -62 7 -95 10 -33 3 -85 8 -115 11 -30 3
-77 8 -105 10 -56 5 -822 13 -827 9z m732 -3109 c258 -33 343 -46 352 -54 3
-4 8 -23 11 -42 19 -151 139 -330 285 -427 159 -105 363 -137 557 -88 55 14
173 75 225 116 60 47 47 50 185 -35 159 -97 339 -224 450 -317 148 -124 425
-391 425 -409 0 -5 -437 -334 -529 -398 -17 -12 -30 -5 -117 63 -419 328 -857
510 -1414 589 -62 9 -262 19 -360 19 -97 0 -331 -12 -340 -18 -3 -1 -34 -6
-70 -10 -112 -11 -139 -16 -280 -46 -215 -45 -476 -125 -616 -189 -35 -16 -64
-27 -64 -26 0 7 -238 -112 -322 -160 -181 -104 -391 -251 -554 -388 -107 -90
-358 -349 -442 -456 -46 -58 -89 -113 -97 -122 -7 -9 -45 -63 -83 -120 -309
-463 -499 -957 -568 -1483 -3 -27 -8 -59 -10 -70 -23 -118 -23 -711 0 -830 2
-11 7 -51 11 -90 4 -38 16 -122 27 -185 11 -63 22 -124 24 -135 1 -11 5 -31 9
-45 3 -14 7 -34 9 -45 2 -11 9 -42 16 -69 6 -27 7 -52 2 -55 -5 -3 -118 -87
-251 -186 -133 -99 -252 -187 -264 -195 -12 -8 -92 -67 -177 -130 -85 -64
-180 -133 -210 -155 -30 -22 -62 -45 -70 -52 -8 -7 -109 -82 -225 -167 -115
-85 -214 -159 -220 -163 -43 -36 -147 -104 -152 -100 -14 15 -145 487 -167
607 -3 14 -10 50 -16 80 -6 30 -13 69 -15 85 -3 17 -9 50 -15 75 -16 79 -46
293 -55 405 -3 33 -8 76 -10 95 -26 203 -26 807 -1 1010 2 14 6 54 10 90 4 36
9 76 11 90 6 45 17 115 21 135 3 11 7 36 10 55 40 253 188 767 278 965 8 17
25 57 39 90 80 190 222 460 354 667 378 597 920 1136 1503 1497 63 39 122 76
130 81 169 105 549 285 780 368 163 59 436 141 558 167 209 45 385 76 522 90
30 4 69 8 85 10 17 3 82 8 145 11 63 4 116 8 118 9 6 5 516 -4 562 -9z m258
-1491 c367 -24 717 -135 1036 -327 102 -62 225 -148 226 -159 0 -3 -33 -29
-72 -57 -40 -28 -167 -121 -282 -206 l-209 -155 -26 18 c-37 26 -266 136 -326
156 -249 84 -377 107 -625 110 -230 3 -322 -6 -530 -52 -243 -53 -551 -175
-692 -274 -14 -11 -29 -19 -32 -19 -7 0 -171 -114 -211 -147 -378 -310 -626
-664 -771 -1103 -35 -104 -77 -283 -89 -370 -3 -25 -10 -76 -14 -115 -13 -96
-10 -418 4 -542 l11 -103 -237 -175 c-131 -96 -240 -175 -243 -175 -3 0 -8 15
-11 33 -3 17 -7 46 -10 62 -5 30 -21 143 -30 220 -24 187 -23 688 0 758 2 6 6
35 9 62 6 51 8 67 27 165 12 65 76 312 89 343 5 12 21 56 35 97 41 114 45 123
121 279 166 340 372 619 651 881 99 93 135 123 258 214 359 266 752 441 1192
530 65 13 145 27 178 31 33 4 71 9 85 11 14 2 81 7 150 10 69 3 126 7 127 8 3
2 106 -2 211 -9z m5193 -216 c27 -93 86 -310 94 -349 2 -8 15 -69 30 -135 25
-118 67 -358 81 -465 4 -30 8 -62 9 -70 1 -8 5 -51 10 -95 4 -44 9 -93 10
-108 20 -168 26 -670 12 -867 -14 -181 -28 -300 -57 -472 -6 -32 -12 -70 -15
-85 -27 -160 -99 -428 -187 -699 -10 -30 -12 -31 -84 -37 -358 -27 -636 -348
-610 -706 9 -128 38 -218 107 -333 l22 -37 -63 -88 c-372 -518 -867 -979
-1395 -1300 -11 -7 -50 -30 -87 -53 -157 -95 -381 -205 -663 -325 -113 -48
-416 -145 -593 -189 -101 -26 -367 -80 -437 -90 -303 -41 -439 -51 -720 -50
-196 0 -363 7 -435 18 -14 3 -52 7 -85 11 -33 4 -82 11 -110 16 -27 5 -63 12
-80 14 -127 21 -349 80 -533 141 -348 116 -761 335 -1056 561 -103 79 -317
262 -348 298 l-27 31 267 197 c147 109 278 206 291 216 l25 19 70 -47 c154
-104 356 -209 531 -279 84 -33 308 -106 364 -117 9 -2 39 -8 66 -15 106 -24
256 -47 380 -57 154 -13 565 -5 618 12 6 2 41 6 75 10 35 3 98 12 140 20 43 8
91 17 109 20 18 3 85 19 150 35 1085 279 1967 1053 2385 2094 96 240 189 597
214 821 3 28 7 56 9 62 24 73 24 691 1 833 -3 14 -7 52 -10 85 -3 33 -11 87
-16 120 -6 33 -13 79 -16 102 l-6 41 120 89 c66 48 132 98 148 110 16 12 94
70 174 129 349 259 662 559 929 889 9 11 29 38 45 60 17 22 32 42 35 45 4 3
19 24 35 48 17 24 33 39 38 34 5 -5 22 -56 39 -113z m-5224 -928 c56 -12 115
-26 130 -32 l27 -10 -31 -18 c-39 -24 -65 -68 -94 -160 -21 -65 -29 -78 -69
-107 -25 -18 -56 -41 -70 -52 -14 -10 -184 -137 -379 -280 l-354 -262 -96 -1
c-135 -1 -181 -22 -235 -107 -21 -34 -27 -56 -27 -100 l-1 -57 -189 -140
c-105 -77 -200 -148 -212 -157 -12 -9 -89 -66 -172 -127 -82 -60 -190 -140
-239 -177 l-89 -67 6 139 c6 129 9 155 22 224 3 14 8 39 11 55 54 318 244 676
494 926 290 291 688 485 1075 525 33 3 61 7 63 9 2 2 76 2 165 1 120 -2 189
-9 264 -25z m3219 -858 c18 -256 4 -618 -31 -783 -3 -14 -8 -40 -11 -59 -15
-112 -92 -375 -156 -536 -93 -236 -253 -522 -385 -690 -13 -16 -27 -34 -31
-40 -254 -339 -631 -646 -1042 -851 -204 -102 -495 -205 -671 -239 -11 -2 -28
-6 -37 -9 -9 -3 -35 -7 -57 -10 -22 -4 -62 -10 -90 -16 -199 -37 -613 -46
-770 -16 -11 2 -41 6 -66 10 -86 13 -138 24 -274 60 -87 24 -267 92 -365 139
-78 38 -200 106 -200 112 0 3 105 81 315 236 83 61 161 119 175 130 79 59 93
67 103 64 7 -2 56 -20 109 -39 82 -31 194 -62 298 -83 84 -17 256 -29 390 -27
138 1 266 10 280 19 3 2 30 6 60 10 120 14 328 72 485 135 653 261 1178 843
1367 1515 19 66 23 83 32 130 2 11 7 31 10 45 8 33 14 70 26 160 18 139 19
155 20 287 l0 133 198 146 c108 81 220 163 247 184 l50 37 7 -23 c3 -13 10
-72 14 -131z m-1042 -640 c-13 -75 -64 -265 -85 -316 -73 -180 -128 -284 -224
-422 -232 -333 -579 -581 -975 -698 -168 -50 -351 -75 -532 -71 -106 2 -145 5
-215 18 -26 5 -21 13 33 52 30 21 141 103 247 182 106 79 200 148 210 154 21
11 11 16 167 -98 58 -42 120 -83 139 -91 110 -46 241 20 275 139 17 59 13 82
-43 253 -33 102 -46 154 -39 162 5 7 94 74 196 150 103 76 273 201 377 278
105 78 239 177 299 220 60 44 121 90 135 102 36 31 43 29 35 -14z"/>
</g>
</svg>
