<svg width="1787" height="1541" xmlns="http://www.w3.org/2000/svg" xmlns:xlink="http://www.w3.org/1999/xlink" overflow="hidden"><defs><filter id="fx0" x="-10%" y="-10%" width="120%" height="120%" filterUnits="userSpaceOnUse" primitiveUnits="userSpaceOnUse"><feComponentTransfer color-interpolation-filters="sRGB"><feFuncR type="discrete" tableValues="0 0"/><feFuncG type="discrete" tableValues="0 0"/><feFuncB type="discrete" tableValues="0 0"/><feFuncA type="linear" slope="0.309804" intercept="0"/></feComponentTransfer><feGaussianBlur stdDeviation="7.12963 7.12963"/></filter><filter id="fx1" x="-10%" y="-10%" width="120%" height="120%" filterUnits="userSpaceOnUse" primitiveUnits="userSpaceOnUse"><feComponentTransfer color-interpolation-filters="sRGB"><feFuncR type="discrete" tableValues="0 0"/><feFuncG type="discrete" tableValues="0 0"/><feFuncB type="discrete" tableValues="0 0"/><feFuncA type="linear" slope="0.270588" intercept="0"/></feComponentTransfer><feGaussianBlur stdDeviation="6.11855 6.11111"/></filter><filter id="fx2" x="-10%" y="-10%" width="120%" height="120%" filterUnits="userSpaceOnUse" primitiveUnits="userSpaceOnUse"><feComponentTransfer color-interpolation-filters="sRGB"><feFuncR type="discrete" tableValues="0 0"/><feFuncG type="discrete" tableValues="0 0"/><feFuncB type="discrete" tableValues="0 0"/><feFuncA type="linear" slope="0.309804" intercept="0"/></feComponentTransfer><feGaussianBlur stdDeviation="7.12963 7.15324"/></filter><filter id="fx3" x="-10%" y="-10%" width="120%" height="120%" filterUnits="userSpaceOnUse" primitiveUnits="userSpaceOnUse"><feComponentTransfer color-interpolation-filters="sRGB"><feFuncR type="discrete" tableValues="0 0"/><feFuncG type="discrete" tableValues="0 0"/><feFuncB type="discrete" tableValues="0 0"/><feFuncA type="linear" slope="0.309804" intercept="0"/></feComponentTransfer><feGaussianBlur stdDeviation="7.12963 7.15324"/></filter><filter id="fx4" x="-10%" y="-10%" width="120%" height="120%" filterUnits="userSpaceOnUse" primitiveUnits="userSpaceOnUse"><feComponentTransfer color-interpolation-filters="sRGB"><feFuncR type="discrete" tableValues="0 0"/><feFuncG type="discrete" tableValues="0 0"/><feFuncB type="discrete" tableValues="0 0"/><feFuncA type="linear" slope="0.2" intercept="0"/></feComponentTransfer><feGaussianBlur stdDeviation="6.11111 6.13585"/></filter><clipPath id="clip5"><rect x="1311" y="472" width="1787" height="1541"/></clipPath><clipPath id="clip6"><rect x="-7.33331" y="-7.33333" width="366.667" height="290.667"/></clipPath><clipPath id="clip7"><rect x="0" y="0" width="353" height="276"/></clipPath><clipPath id="clip8"><rect x="-6.34106" y="-6.33331" width="286.682" height="275.667"/></clipPath><clipPath id="clip9"><rect x="0" y="0" width="274" height="264"/></clipPath><clipPath id="clip10"><rect x="-7.33331" y="-7.3576" width="117.667" height="113.709"/></clipPath><clipPath id="clip11"><rect x="0" y="0" width="101" height="101"/></clipPath><clipPath id="clip12"><rect x="-7.33331" y="-7.35762" width="117.667" height="113.709"/></clipPath><clipPath id="clip13"><rect x="0" y="0" width="101" height="101"/></clipPath><clipPath id="clip14"><rect x="-3.5" y="-6.52631" width="132" height="135.045"/></clipPath><clipPath id="clip15"><rect x="0" y="0" width="123" height="124"/></clipPath></defs><g clip-path="url(#clip5)" transform="translate(-1311 -472)"><path d="M2919.69 562.276C2852.2 502.195 2767.14 472 2667.29 472 2402.88 472 2121.21 683.98 2109.5 692.915 2097.48 702.158 2094.71 720.029 2103.64 732.353 2112.58 744.677 2129.53 749.608 2142.17 740.98L2151.41 737.899C2228.14 688.602 2324.91 655.942 2417.36 669.191 2455.27 674.737 2493.48 693.223 2513.21 726.191 2532.63 758.234 2532.31 797.981 2528.62 835.262 2507.97 1043.85 2399.49 1234.26 2250.03 1378.46 2156.34 1468.74 2025.37 1569.18 1889.77 1578.12 1826.6 1582.12 1780.68 1567.64 1750.17 1535.29 1704.25 1486.61 1708.26 1411.74 1708.26 1411.12 1708.88 1399.41 1702.4 1388.32 1691.62 1383.7 1681.14 1378.77 1668.51 1380.93 1660.18 1389.55 1609.34 1440.39 1597.62 1541.14 1596.7 1616.01 1448.78 1350.73 1701.48 931.084 1704.25 926.463 1710.72 915.679 1709.49 901.814 1700.86 892.571 1692.23 883.327 1678.68 880.862 1667.27 886.717 1486.07 979.766 1358.79 1328.55 1353.55 1343.64 1294.07 1515.57 1314.72 1702.59 1407.17 1832.31 1485.76 1942.3 1609.95 2003 1756.95 2003 1892.86 2003 2045.71 1953.39 2211.2 1855.72 2727.7 1551 2843.88 1094.38 2870.08 908.284 2997.97 1166.48 2783.17 1534.06 2780.71 1537.75 2773.61 1549.46 2776.08 1564.87 2786.56 1573.49 2797.04 1582.43 2812.44 1582.43 2822.92 1573.49 2969 1450.25 3076.86 1197.29 3079.94 971.447 3082.1 799.213 3026.93 657.791 2919.69 562.276Z" fill-rule="evenodd"/><g clip-path="url(#clip6)" filter="url(#fx0)" transform="matrix(3 0 0 3 1608 700)"><g clip-path="url(#clip7)" transform="matrix(1 0 0 1 0 -2.84217e-14)"><path d="M38.558 221.332 21.8836 233.574C22.9815 235.313 24.1029 237.031 25.2556 238.73 26.4868 240.508 27.7362 242.289 29.0432 244.038L29.0955 244.117 29.1556 244.193C30.4705 245.924 31.8428 247.615 33.2307 249.294 34.5482 250.868 35.8944 252.424 37.2693 253.948L53.9463 241.711C59.9793 237.271 63.7853 230.687 64.1146 224.111L329.349 29.3027C329.927 27.0438 330.471 24.7501 330.884 22.4602 328.536 22.2026 326.168 22.0494 323.792 21.9482L58.5652 216.756C52.0852 215.187 44.5962 216.895 38.558 221.332Z" fill="#262626" fill-rule="evenodd"/></g></g><path d="M1697.75 1338.07 1647.72 1374.79C1651.02 1380.01 1654.38 1385.17 1657.84 1390.26 1661.53 1395.6 1665.28 1400.94 1669.2 1406.19L1669.36 1406.42 1669.54 1406.65C1673.48 1411.84 1677.6 1416.92 1681.76 1421.95 1685.72 1426.68 1689.76 1431.34 1693.88 1435.92L1743.91 1399.21C1762.01 1385.89 1773.43 1366.13 1774.42 1346.41L2570.12 761.981C2571.85 755.204 2573.48 748.323 2574.72 741.453 2567.68 740.681 2560.58 740.221 2553.45 739.917L1757.77 1324.34C1738.33 1319.63 1715.86 1324.76 1697.75 1338.07Z" fill="#262626" fill-rule="evenodd"/><g clip-path="url(#clip8)" filter="url(#fx1)" transform="matrix(2.99635 0 0 3 1675 738)"><g clip-path="url(#clip9)"><path d="M255.453 109.349C255.453 112.112 254.834 114.715 253.593 117.16 252.353 119.604 250.599 121.641 248.332 123.27L195.926 161.314 215.91 222.842C216.477 224.684 216.761 226.49 216.761 228.261 216.761 230.599 216.318 232.813 215.432 234.903 214.546 236.993 213.324 238.817 211.765 240.376 210.206 241.935 208.381 243.156 206.29 244.042 204.199 244.928 201.985 245.371 199.647 245.371 195.961 245.371 192.595 244.272 189.548 242.076L137.143 204.033 84.7377 242.076C81.7606 244.272 78.3946 245.371 74.639 245.371 72.3 245.371 70.0855 244.91 67.9949 243.989 65.9044 243.068 64.0795 241.828 62.5204 240.27 60.9613 238.711 59.7213 236.887 58.8001 234.797 57.8787 232.707 57.4181 230.458 57.4181 228.049 57.4181 226.42 57.7016 224.684 58.2685 222.842L78.3596 161.314 25.9536 123.27C23.6858 121.641 21.9319 119.604 20.6919 117.16 19.4517 114.715 18.8315 112.112 18.8315 109.349 18.8315 107.011 19.2924 104.797 20.2136 102.708 21.1348 100.617 22.3748 98.7928 23.9341 97.2342 25.493 95.6756 27.3178 94.4363 29.4083 93.5148 31.499 92.5949 33.7135 92.1338 36.052 92.1338L100.788 92.1338 120.772 30.6055C121.977 27.063 124.068 24.1943 127.044 21.9976 130.021 19.801 133.387 18.7037 137.143 18.7037 140.898 18.7037 144.264 19.801 147.242 21.9976 150.217 24.1943 152.308 27.063 153.512 30.6055L173.497 92.1338 238.233 92.1338C240.572 92.1338 242.786 92.5949 244.877 93.5148 246.967 94.4363 248.792 95.6756 250.351 97.2342 251.91 98.7928 253.15 100.617 254.072 102.708 254.993 104.797 255.453 107.011 255.453 109.349Z" fill="#262626" fill-rule="evenodd"/></g></g><path d="M2466.55 1012.49C2466.55 1020.78 2464.69 1028.59 2460.97 1035.93 2457.26 1043.26 2452 1049.37 2445.21 1054.26L2288.18 1168.39 2348.06 1352.97C2349.76 1358.5 2350.61 1363.92 2350.61 1369.23 2350.61 1376.24 2349.28 1382.89 2346.63 1389.16 2343.97 1395.43 2340.31 1400.9 2335.64 1405.57 2330.97 1410.25 2325.5 1413.92 2319.24 1416.57 2312.97 1419.23 2306.34 1420.56 2299.33 1420.56 2288.29 1420.56 2278.2 1417.26 2269.07 1410.68L2112.05 1296.54 1955.02 1410.68C1946.1 1417.26 1936.02 1420.56 1924.76 1420.56 1917.76 1420.56 1911.12 1419.18 1904.86 1416.41 1898.59 1413.65 1893.12 1409.93 1888.45 1405.26 1883.78 1400.58 1880.07 1395.11 1877.31 1388.84 1874.54 1382.57 1873.16 1375.82 1873.16 1368.59 1873.16 1363.71 1874.01 1358.5 1875.71 1352.97L1935.91 1168.39 1778.89 1054.26C1772.09 1049.37 1766.84 1043.26 1763.12 1035.93 1759.4 1028.59 1757.55 1020.78 1757.55 1012.49 1757.55 1005.48 1758.93 998.837 1761.69 992.569 1764.45 986.298 1768.16 980.825 1772.83 976.149 1777.51 971.474 1782.97 967.756 1789.24 964.991 1795.5 962.232 1802.14 960.848 1809.14 960.848L2003.12 960.848 2062.99 776.263C2066.61 765.636 2072.87 757.03 2081.79 750.44 2090.71 743.85 2100.79 740.558 2112.05 740.558 2123.3 740.558 2133.39 743.85 2142.31 750.44 2151.22 757.03 2157.49 765.636 2161.1 776.263L2220.98 960.848 2414.95 960.848C2421.96 960.848 2428.59 962.232 2434.86 964.991 2441.12 967.756 2446.59 971.474 2451.26 976.149 2455.93 980.825 2459.65 986.298 2462.41 992.569 2465.17 998.837 2466.55 1005.48 2466.55 1012.49Z" fill="#262626" fill-rule="evenodd"/><path d="M1470.28 1931.82C1433.13 1904.67 1324.86 1764.12 1313.41 1644.06 1301.96 1524 1336.52 1343.27 1401.55 1211.48 1516.88 937.167 1673.98 851.907 1696.89 860.011 1769.9 886.698 1705.07 933.955 1683.23 980.096 1645.33 1053.55 1601.2 1107.6 1575.51 1281.48 1549.81 1455.36 1563.97 1498.63 1576.27 1572.96 1613.72 1667.41 1626.57 1686.25 1701.68 1781.55 1774.27 1876.39 1765.11 1929.76 1741.92 1965.98 1718.72 2002.2 1601.62 2026.27 1570.88 2003.91 1540.14 1981.56 1504.37 1970.94 1470.28 1931.82Z" fill-rule="evenodd"/><path d="M2924.51 596.953C2960.7 619.134 3070.79 740.268 3090.32 849.807 3109.84 959.345 3091.6 1128.12 3041.68 1254.19 2956.17 1515.06 2818.11 1605.23 2796.43 1599.5 2743.79 1582.06 2777.12 1530.59 2799.99 1488.05 2822.86 1445.51 2875.46 1372.8 2886.06 1210.99 2896.66 1049.18 2870.81 1002.31 2853.93 934.876 2812.42 850.829 2799.2 834.472 2722.99 752.468 2649.13 670.693 2653.55 620.935 2672.17 585.889 2690.78 550.843 2772.7 518.447 2826.6 538.194 2880.5 557.941 2882.18 563.533 2924.51 596.953Z" fill-rule="evenodd"/><g clip-path="url(#clip10)" filter="url(#fx2)" transform="matrix(3 0 0 2.9901 2170 1563)"><g clip-path="url(#clip11)" transform="translate(-1.13687e-13 0)"><path d="M79.1591 50.4337C79.1591 34.7316 66.4022 22.0034 50.6549 22.0034 34.9162 22.0034 22.1592 34.7316 22.1592 50.4337 22.1592 66.1302 34.9162 78.8579 50.6549 78.8579 66.4022 78.8579 79.1591 66.1302 79.1591 50.4337Z" fill="#262626" fill-rule="evenodd"/></g></g><path d="M2381.55 1687.87C2381.55 1640.92 2343.28 1602.86 2296.04 1602.86 2248.82 1602.86 2210.55 1640.92 2210.55 1687.87 2210.55 1734.81 2248.82 1772.87 2296.04 1772.87 2343.28 1772.87 2381.55 1734.81 2381.55 1687.87Z" fill="#262626" fill-rule="evenodd"/><g clip-path="url(#clip12)" filter="url(#fx3)" transform="matrix(3 0 0 2.9901 2397 481)"><g clip-path="url(#clip13)"><path d="M79.1593 50.4306C79.1593 34.7299 66.3981 22.0035 50.6593 22.0035 34.9204 22.0035 22.1592 34.7299 22.1592 50.4306 22.1592 66.1297 34.9204 78.8578 50.6593 78.8578 66.3981 78.8578 79.1593 66.1297 79.1593 50.4306Z" fill="#262626" fill-rule="evenodd"/></g></g><path d="M2608.55 605.865C2608.55 558.919 2570.27 520.865 2523.05 520.865 2475.83 520.865 2437.55 558.919 2437.55 605.865 2437.55 652.807 2475.83 690.865 2523.05 690.865 2570.27 690.865 2608.55 652.807 2608.55 605.865Z" fill="#262626" fill-rule="evenodd"/><g clip-path="url(#clip14)" filter="url(#fx4)" transform="matrix(2 0 0 1.99194 1428 1425)"><g clip-path="url(#clip15)" transform="matrix(1 0 0 1 0 1.13687e-13)"><path d="M104.136 61.7933C104.136 38.0894 85.1104 18.8702 61.6299 18.8702 38.1621 18.8702 19.1362 38.0894 19.1362 61.7933 19.1362 85.497 38.1621 104.716 61.6299 104.716 85.1104 104.716 104.136 85.497 104.136 61.7933Z" fill="#262626" fill-rule="evenodd"/></g></g><path d="M1626.55 1538.37C1626.55 1491.15 1588.5 1452.87 1541.54 1452.87 1494.6 1452.87 1456.55 1491.15 1456.55 1538.37 1456.55 1585.58 1494.6 1623.87 1541.54 1623.87 1588.5 1623.87 1626.55 1585.58 1626.55 1538.37Z" fill="#262626" fill-rule="evenodd"/></g></svg>