<svg xmlns="http://www.w3.org/2000/svg" version="1.1" xmlns:xlink="http://www.w3.org/1999/xlink" xmlns:svgjs="http://svgjs.com/svgjs" width="512" height="512" x="0" y="0" viewBox="0 0 256 256" style="enable-background:new 0 0 512 512" xml:space="preserve" class=""><g><g xmlns="http://www.w3.org/2000/svg" id="sad"><path d="m128 8a120 120 0 0 1 120 120v20a100 100 0 0 1 -100 100h-40a100 100 0 0 1 -100-100v-20a120 120 0 0 1 120-120z" fill="#ffed4c" data-original="#ffed4c" class=""></path><path d="m184 76a20 20 0 0 1 20 20v2a18 18 0 0 1 -18 18h-4a18 18 0 0 1 -18-18v-2a20 20 0 0 1 20-20z" fill="#4f3816" data-original="#4f3816" class=""></path><path d="m72 76a20 20 0 0 1 20 20v2a18 18 0 0 1 -18 18h-4a18 18 0 0 1 -18-18v-2a20 20 0 0 1 20-20z" fill="#4f3816" data-original="#4f3816" class=""></path><path d="m248 128v20a100 100 0 0 1 -100 100h-40a100.026 100.026 0 0 1 -93.13-63.51 99.923 99.923 0 0 0 85.13 47.51h40a100 100 0 0 0 100-100v-20a119.53 119.53 0 0 0 -8.92-45.46 119.346 119.346 0 0 1 16.92 61.46z" fill="#f5b13b" data-original="#f5b13b" class=""></path><path d="m107.61 127.609a1.971 1.971 0 0 1 -3.61-1.442l.025-.1a23.317 23.317 0 0 1 4.791-9.254 24.784 24.784 0 0 1 8.553-6.481c.816-.344 1.639-.689 2.479-.981.043-.015.087-.029.131-.041.828-.236 1.656-.491 2.495-.7q.081-.02.164-.034c.843-.15 1.692-.29 2.541-.406q.086-.012.174-.017l2.536-.149a1.97 1.97 0 0 1 .23 0l2.535.147q.088.005.176.017c.848.114 1.694.259 2.538.4.057.01.114.021.17.035.836.2 1.66.458 2.485.693.049.014.1.029.145.046.837.294 1.66.632 2.474.976a24.774 24.774 0 0 1 8.557 6.482 23.282 23.282 0 0 1 4.793 9.258l.04.162a1.971 1.971 0 0 1 -3.613 1.441 25.549 25.549 0 0 0 -5.668-6.412 23.344 23.344 0 0 0 -29.5-.008 25.458 25.458 0 0 0 -5.641 6.368z" fill="#4f3816" data-original="#4f3816" class=""></path></g></g></svg>