<svg width="687" height="899" xmlns="http://www.w3.org/2000/svg" xmlns:xlink="http://www.w3.org/1999/xlink" overflow="hidden"><defs><clipPath id="clip0"><rect x="1232" y="698" width="687" height="899"/></clipPath></defs><g clip-path="url(#clip0)" transform="translate(-1232 -698)"><path d="M1919.08 698.604 1918.64 717.965 1917.39 735.444 1908.25 734.791 1909.49 717.423 1909.48 717.646 1909.92 698.396ZM1913.89 763.12 1911.82 776.019 1907.84 795.096 1906.73 799.482 1897.84 797.224 1898.93 792.933 1898.89 793.127 1902.83 774.252 1902.79 774.46 1904.84 761.666ZM1899.4 826.178 1897.49 832.579 1891.25 851.003 1887.3 861.165 1878.76 857.848 1882.66 847.779 1882.6 847.966 1888.78 829.716 1888.73 829.877 1890.62 823.557ZM1876.59 886.682 1876.54 886.78 1868.22 904.125 1859.97 919.751 1851.86 915.472 1860.07 899.923 1859.99 900.079 1868.24 882.892 1868.17 883.05 1868.18 883.032ZM1845.8 943.744 1839.57 953.527 1828.98 968.985 1824.97 974.328 1817.63 968.828 1821.58 963.562 1821.47 963.72 1831.97 948.408 1831.88 948.539 1838.07 938.823ZM1807.86 996.089 1806.18 998.158 1794.06 1011.79 1782.92 1023.44 1776.29 1017.11 1787.38 1005.52 1787.26 1005.64 1799.26 992.142 1799.13 992.294 1800.76 990.301ZM1762.45 1042.44 1755.42 1048.54 1741.81 1059.23 1733.27 1065.31 1727.95 1057.85 1736.4 1051.83 1736.23 1051.96 1749.67 1041.4 1749.5 1041.54 1756.45 1035.51ZM1709.68 1080.38 1699.25 1086.19 1684.64 1093.37 1676.35 1096.8 1672.84 1088.34 1681 1084.95 1680.73 1085.07 1695.1 1078.01 1694.89 1078.12 1705.22 1072.37ZM1649.81 1105.96 1639.53 1108.72 1624.26 1111.66 1613.19 1112.95 1612.13 1103.84 1623.03 1102.57 1622.7 1102.62 1637.63 1099.75 1637.31 1099.82 1647.43 1097.1ZM1585.4 1114.42 1578.63 1114.7 1579.02 1114.67 1564.02 1116.61 1564.38 1116.55 1549.92 1119.57 1548.04 1110.6 1562.67 1107.54 1578.05 1105.55 1585.02 1105.26ZM1524.42 1127.84 1520.46 1129.3 1520.77 1129.17 1506.14 1135.8 1506.4 1135.67 1492.02 1143.3 1492.26 1143.16 1492.16 1143.23 1487.39 1135.4 1487.61 1135.27 1502.23 1127.51 1517.13 1120.76 1521.25 1119.24ZM1469.21 1157.91 1464.22 1161.34 1464.44 1161.18 1450.75 1171.81 1450.91 1171.68 1440.8 1180.29 1434.85 1173.31 1445.05 1164.63 1458.92 1153.86 1464.02 1150.35ZM1421.13 1198.85 1411.92 1208.37 1412.06 1208.22 1399.75 1222.16 1399.86 1222.02 1396.81 1225.76 1389.71 1219.96 1392.82 1216.16 1405.26 1202.08 1414.54 1192.48ZM1379.98 1247.25 1376.48 1251.93 1376.59 1251.79 1365.52 1267.85 1365.63 1267.7 1359.58 1277.27 1351.83 1272.37 1357.92 1262.73 1369.09 1246.51 1372.64 1241.76ZM1345.56 1300.73 1345.15 1301.43 1345.23 1301.28 1335.8 1319.03 1335.87 1318.89 1328.96 1333.04 1320.72 1329.02 1327.67 1314.79 1337.18 1296.89 1337.64 1296.11ZM1317.94 1357.86 1311.26 1374.58 1311.32 1374.41 1305.06 1391.99 1296.43 1388.92 1302.71 1371.26 1309.43 1354.46ZM1297.05 1417.94 1292.8 1433.46 1292.84 1433.29 1288.15 1453.33 1279.23 1451.24 1283.93 1431.12 1288.21 1415.52ZM1283.3 1480.01 1281.16 1494.48 1281.18 1494.32 1278.87 1515.13 1278.89 1514.93 1278.81 1516.01 1269.67 1515.41 1269.75 1514.22 1272.08 1493.22 1274.23 1478.66ZM1277.36 1543.26 1277.27 1547.52 1268.11 1547.33 1268.2 1543.07ZM1293.21 1522.66 1272.5 1556.52 1253.22 1521.82C1251.99 1519.61 1252.79 1516.82 1255 1515.59 1257.21 1514.36 1260 1515.16 1261.23 1517.37L1276.7 1545.2 1268.78 1545.04 1285.39 1517.88C1286.71 1515.72 1289.53 1515.04 1291.69 1516.36 1293.85 1517.68 1294.53 1520.5 1293.21 1522.66Z" fill="#000000" fill-opacity="0.4"/></g></svg>